<?xml version="1.0" standalone="no"?>
<!DOCTYPE svg PUBLIC "-//W3C//DTD SVG 20010904//EN"
 "http://www.w3.org/TR/2001/REC-SVG-20010904/DTD/svg10.dtd">
<svg version="1.0" xmlns="http://www.w3.org/2000/svg"
 width="888.000000pt" height="2363.000000pt" viewBox="0 0 888.000000 2363.000000"
 preserveAspectRatio="xMidYMid meet">

<g transform="translate(0.000000,2363.000000) scale(0.100000,-0.100000)"
fill="#000000" stroke="none">
<path d="M5070 23070 c0 -110 3 -200 8 -200 4 0 68 17 142 38 l134 39 18 69
c10 38 18 75 18 81 0 7 -72 49 -160 93 l-160 80 0 -200z"/>
<path d="M5356 22888 c-3 -24 -22 -180 -41 -348 -23 -196 -43 -328 -57 -370
-11 -36 -79 -182 -151 -325 -128 -257 -237 -499 -272 -605 -10 -30 -65 -139
-122 -241 -57 -103 -113 -215 -124 -248 -18 -54 -26 -64 -62 -82 l-40 -21 93
-86 c99 -93 164 -142 188 -142 8 0 41 -12 73 -26 l58 -26 42 -125 c44 -134 39
-129 105 -102 27 11 75 4 380 -49 l349 -62 110 -109 110 -109 145 -62 145 -61
245 -224 245 -224 86 -192 85 -191 -146 -460 -147 -461 -139 -124 c-214 -191
-197 -169 -183 -233 6 -30 17 -67 25 -82 8 -14 21 -61 30 -104 9 -43 22 -88
30 -99 19 -29 32 -132 40 -325 4 -91 11 -176 16 -190 13 -32 38 -221 38 -281
0 -49 -17 -98 -54 -158 -13 -20 -26 -54 -29 -76 -7 -41 -44 -85 -73 -85 -9 0
-27 -9 -41 -20 -25 -20 -76 -26 -108 -14 -20 8 -45 56 -45 88 0 14 -4 27 -9
30 -5 3 -12 34 -16 68 -7 59 -9 65 -50 95 -46 34 -65 30 -65 -14 0 -13 -7 -40
-15 -60 -8 -19 -15 -45 -15 -57 0 -11 -9 -36 -20 -54 -18 -29 -19 -40 -10
-100 5 -37 14 -81 20 -98 7 -19 7 -40 2 -55 -5 -13 -6 -53 -2 -89 9 -81 -5
-121 -49 -139 -67 -28 -112 8 -130 105 -12 68 -44 144 -60 144 -5 0 -17 17
-26 38 -10 20 -30 51 -45 67 -16 17 -34 49 -41 73 -7 23 -14 42 -15 42 -2 0
-19 -7 -37 -16 -34 -16 -35 -18 -42 -97 -4 -45 -13 -97 -20 -116 -7 -20 -16
-54 -20 -75 -4 -21 -12 -48 -20 -60 -7 -12 -16 -43 -19 -71 -4 -27 -12 -62
-17 -77 -13 -31 -58 -53 -94 -44 -30 8 -65 44 -65 68 0 10 -4 18 -10 18 -15 0
-30 -36 -30 -75 0 -64 -33 -104 -85 -105 -59 0 -95 51 -95 137 l0 32 -56 -25
c-50 -22 -97 -33 -214 -50 -28 -5 -41 -1 -60 18 -14 14 -46 44 -72 67 l-47 43
-81 -78 c-96 -94 -115 -105 -191 -111 -133 -13 -262 46 -342 156 l-44 60 -12
-26 c-22 -47 -101 -142 -143 -170 -58 -39 -60 -53 -8 -53 29 0 72 -14 134 -42
87 -41 96 -43 186 -43 87 0 101 3 164 33 l69 32 -7 -61 c-4 -33 -11 -71 -16
-84 -9 -25 -285 -189 -305 -182 -6 3 -86 52 -179 111 -92 58 -171 106 -174
106 -3 0 -26 -20 -52 -44 l-48 -45 25 -23 c14 -13 53 -70 89 -128 60 -99 73
-113 239 -260 97 -85 181 -160 186 -166 9 -11 49 -218 49 -251 0 -8 -15 -13
-42 -13 l-43 -1 -125 -167 -125 -166 -303 -182 c-166 -100 -305 -184 -308
-186 -2 -3 50 -50 116 -104 66 -54 120 -102 120 -106 0 -4 -63 -52 -139 -106
l-140 -99 102 -51 c246 -123 374 -306 426 -607 6 -33 15 -142 20 -242 5 -100
13 -189 18 -198 8 -13 20 -3 67 59 31 42 60 76 64 76 4 0 44 -56 89 -125 l83
-124 -33 -6 c-17 -3 -68 -12 -112 -20 -80 -14 -2139 -105 -2149 -95 -2 3 33
183 78 400 l83 395 -42 450 -42 450 128 580 c81 365 151 652 188 775 l59 195
-84 167 -84 168 0 493 0 493 -39 195 c-22 107 -42 215 -46 239 -13 90 -76 465
-81 483 -3 9 -14 22 -24 27 -16 8 -18 8 -14 -5 4 -8 4 -15 2 -15 -3 0 -49 18
-103 40 -54 22 -99 39 -101 37 -1 -1 26 -142 61 -312 l64 -310 1 -228 c0 -227
0 -230 -85 -910 -52 -416 -90 -686 -98 -693 -7 -7 -81 -55 -165 -107 l-153
-95 183 -163 c101 -89 185 -164 187 -166 2 -1 -137 -190 -308 -419 -172 -229
-311 -417 -309 -418 2 -2 101 -38 221 -81 120 -43 220 -82 222 -85 3 -4 -51
-44 -118 -89 l-123 -81 41 -291 42 -290 -63 -480 -63 -479 40 -97 c22 -54 38
-102 35 -108 -2 -6 -30 -19 -61 -29 l-57 -18 -190 84 -189 83 -100 139 c-54
77 -99 136 -99 132 0 -5 92 -301 204 -660 l203 -651 -10 -62 c-20 -118 25
-223 121 -284 62 -39 182 -76 312 -96 58 -9 108 -19 112 -22 5 -4 -1 -155 -12
-336 -14 -238 -20 -447 -20 -750 0 -346 -7 -569 -41 -1270 -28 -573 -44 -1015
-49 -1355 -7 -464 -9 -511 -28 -585 -20 -78 -66 -200 -82 -220 -5 -5 -18 -47
-29 -92 -20 -78 -21 -105 -21 -744 l0 -663 -95 -1086 c-93 -1061 -124 -1408
-146 -1640 -20 -213 -79 -384 -187 -542 -27 -40 -125 -187 -217 -327 -255
-390 -480 -699 -518 -715 -7 -2 504 -5 1136 -5 631 -1 1147 3 1147 7 0 4 -24
129 -54 278 -59 295 -118 634 -137 788 -15 121 -7 249 21 380 43 198 108 348
230 530 40 59 90 150 111 204 l40 97 21 515 20 515 143 675 c79 371 185 881
235 1133 84 424 92 473 101 640 20 371 24 393 171 792 87 236 125 378 139 520
6 61 19 144 30 186 21 86 238 557 461 1004 129 256 152 296 197 338 103 96
256 145 370 117 92 -22 335 -194 462 -326 125 -133 162 -214 204 -451 58 -335
111 -523 326 -1156 l159 -469 150 -687 c85 -389 195 -931 255 -1251 143 -774
351 -1999 365 -2145 42 -461 86 -650 194 -835 42 -73 44 -79 67 -255 34 -255
32 -397 -10 -635 -55 -312 -53 -416 9 -475 l31 -30 1120 -3 1119 -2 -19 47
c-67 167 -192 457 -199 462 -5 3 -187 147 -404 319 -450 355 -478 385 -544
558 -51 136 -52 158 -46 795 3 409 1 640 -7 756 -6 93 -16 233 -22 313 -16
226 -47 364 -110 494 l-29 58 0 417 c0 414 0 421 -60 1211 -47 618 -65 922
-81 1365 l-21 570 -104 337 -104 336 0 264 c0 381 -71 1502 -170 2678 -55 658
-87 1095 -101 1405 l-22 450 -104 355 -105 355 -20 328 -21 329 22 96 c14 64
42 305 80 697 l59 600 1 -310 c1 -299 3 -323 45 -675 l44 -365 166 -642 166
-643 105 -902 c57 -497 114 -1015 125 -1153 24 -287 33 -315 107 -366 121 -84
342 -110 518 -62 54 15 69 26 151 107 72 72 99 107 127 166 66 137 69 168 74
715 l4 490 -85 573 -86 574 0 1006 0 1006 -60 691 -61 690 -105 526 -104 525
-130 389 c-72 215 -130 396 -130 403 0 35 -134 319 -266 563 l-147 272 -254
318 -254 318 -112 76 c-62 42 -181 124 -266 183 l-153 107 -84 190 -85 190
-187 1080 -187 1080 -61 80 c-56 73 -67 82 -116 98 -30 9 -57 17 -60 17 -3 0
-8 -19 -12 -42z m-3397 -8323 l-188 -750 40 -464 c21 -255 39 -484 39 -509 0
-25 -46 -220 -104 -441 -63 -239 -119 -478 -141 -601 -34 -189 -45 -236 -45
-199 0 8 -9 97 -20 198 l-19 184 21 41 c19 37 25 99 64 691 l42 650 105 440
105 440 56 595 c31 327 59 614 62 637 l6 42 82 -102 82 -102 -187 -750z"/>
<path d="M4800 19919 c-106 -11 -245 -18 -387 -18 l-223 -1 0 -39 c0 -39 1
-39 48 -49 741 -158 750 -159 1137 -196 204 -20 385 -39 403 -42 l33 -5 -40
80 c-22 44 -48 82 -58 85 -64 19 -743 206 -745 205 -2 -1 -77 -10 -168 -20z"/>
<path d="M6070 19450 c0 -8 -7 -127 -15 -265 -8 -137 -13 -250 -12 -251 1 -1
52 57 113 128 l112 131 -90 126 c-105 146 -108 150 -108 131z"/>
<path d="M4205 19030 c9 -63 35 -295 35 -312 0 -14 4 -15 30 -5 17 6 30 17 30
23 0 6 7 17 15 24 8 7 15 18 15 25 0 7 -29 73 -65 146 -44 91 -63 123 -60 99z"/>
<path d="M5047 18954 c-4 -4 -7 -23 -7 -43 0 -33 -1 -34 -15 -15 -14 18 -14
18 -15 -8 0 -17 -5 -28 -14 -28 -19 0 -34 -44 -39 -111 -2 -36 -10 -63 -20
-74 -15 -15 -22 -48 -18 -82 1 -7 -7 -34 -18 -60 -24 -59 -37 -220 -16 -203
22 18 23 -28 4 -176 -11 -88 -14 -145 -8 -156 15 -28 10 -57 -13 -69 -12 -7
-41 -31 -64 -55 -45 -45 -92 -80 -99 -72 -2 2 13 33 35 67 54 89 73 181 66
322 -6 123 -14 145 -78 206 -53 51 -207 149 -260 165 -34 10 -39 16 -44 49 -7
43 -24 43 -24 0 0 -27 -1 -27 -72 -29 -105 -4 -229 -37 -319 -84 -44 -23 -79
-45 -79 -50 0 -10 45 0 82 18 41 21 46 16 13 -12 -29 -25 -29 -26 -5 -19 65
17 70 18 70 1 0 -20 39 -36 89 -36 36 0 37 -1 38 -37 0 -21 2 -135 4 -253 2
-118 7 -220 11 -225 4 -6 4 -64 0 -130 -6 -92 -4 -121 6 -132 7 -7 12 -28 10
-45 -4 -46 -41 -49 -91 -10 -44 35 -170 72 -245 72 -29 0 -52 4 -52 10 0 5 19
29 43 54 63 66 105 121 119 153 7 15 29 54 50 87 74 115 98 238 64 321 -23 54
-101 125 -139 126 -18 0 -47 6 -65 12 -68 25 -355 -16 -396 -57 -10 -10 -49
-31 -85 -45 -36 -15 -84 -39 -106 -54 -132 -91 -147 -98 -162 -80 -29 38 -61
111 -68 156 -8 54 -25 54 -25 -1 0 -34 -1 -35 -15 -16 -14 18 -14 18 -15 -8 0
-17 -5 -28 -14 -28 -19 0 -34 -44 -39 -111 -2 -36 -10 -63 -20 -74 -15 -15
-22 -48 -18 -82 1 -7 -7 -34 -18 -60 -24 -59 -37 -220 -16 -203 21 18 22 -24
4 -175 -10 -87 -13 -146 -8 -157 15 -28 10 -57 -12 -68 -11 -7 -45 -36 -76
-65 -33 -32 -73 -61 -101 -71 -26 -9 -54 -24 -62 -32 -8 -8 -10 -12 -5 -9 6 3
39 12 74 20 46 11 61 11 58 3 -4 -9 12 -11 56 -8 59 5 60 4 54 -19 -3 -12 -1
-29 6 -37 12 -15 20 -67 37 -256 5 -60 11 -111 13 -113 3 -2 8 40 12 94 6 86
9 95 21 78 14 -18 14 -18 15 1 1 10 1 24 0 31 -1 7 7 29 17 50 24 47 35 138
22 182 -12 43 -6 55 34 69 19 7 51 24 71 37 20 14 41 23 46 19 5 -3 21 2 35
11 14 9 27 15 29 13 2 -2 13 -36 25 -76 11 -40 28 -76 36 -79 8 -3 28 -32 45
-64 16 -33 33 -59 37 -59 14 0 61 -112 72 -172 6 -32 14 -58 17 -58 6 0 -5
130 -14 168 -4 17 -2 21 11 16 14 -6 15 -2 1 36 -8 23 -15 53 -15 65 0 36 -31
148 -45 165 -19 22 -45 77 -45 94 0 14 78 73 84 64 14 -19 26 -104 26 -179 0
-112 10 -200 21 -193 4 2 11 -12 14 -33 3 -21 17 -75 32 -120 19 -60 24 -93
19 -123 -3 -22 -3 -59 1 -82 l7 -43 12 70 c7 39 13 85 13 104 1 28 3 31 15 22
12 -10 15 -2 21 51 11 109 9 211 -5 256 -12 34 -12 50 -2 85 7 23 18 87 23
142 6 55 11 100 12 101 7 5 171 -19 221 -32 34 -9 88 -18 121 -19 33 -2 72 -8
87 -14 27 -10 27 -10 12 -48 -9 -21 -32 -55 -50 -76 -19 -20 -34 -42 -34 -48
0 -6 -39 -49 -87 -95 -47 -46 -83 -87 -79 -91 4 -5 13 -1 19 7 7 9 28 26 47
37 19 12 60 47 90 77 56 58 79 71 60 36 -18 -33 3 -23 50 26 38 38 105 84 125
84 3 0 5 -21 6 -47 l1 -48 17 70 c13 51 21 69 32 66 8 -2 39 -7 69 -11 35 -4
85 -21 138 -48 45 -23 82 -38 82 -32 0 5 -4 10 -8 10 -5 0 -34 20 -65 44 -32
25 -63 47 -70 49 -9 4 -9 8 1 15 15 11 1 25 -35 36 -30 9 -29 15 8 78 44 74
102 141 141 162 18 10 44 33 58 51 17 23 38 36 68 43 32 7 42 7 39 -2 -4 -9
12 -11 56 -8 59 5 60 4 54 -19 -3 -12 -1 -29 6 -37 12 -15 20 -67 37 -256 5
-60 11 -111 13 -113 3 -2 8 40 12 94 6 86 9 95 21 78 14 -18 14 -18 15 1 1 10
1 24 0 31 -1 7 7 30 18 52 22 43 31 145 18 198 -8 32 -8 33 49 58 32 14 66 33
76 41 9 9 22 13 28 9 6 -4 22 1 36 10 14 9 28 15 30 12 3 -2 13 -35 23 -72 11
-39 28 -76 39 -84 11 -9 32 -40 46 -68 15 -29 30 -53 34 -53 14 0 61 -111 72
-170 6 -30 15 -62 21 -70 8 -12 9 -11 5 5 -2 11 -7 47 -11 80 -3 33 -8 73 -11
89 -4 19 -3 26 5 22 14 -9 14 2 1 56 -5 24 -17 78 -26 121 -9 42 -20 80 -25
83 -13 8 -49 80 -49 99 0 8 21 28 46 44 34 22 41 30 27 33 -11 2 7 13 45 27
34 13 64 27 67 31 2 3 -32 0 -75 -9 -108 -20 -120 -13 -149 89 -13 43 -34 102
-47 130 -13 29 -24 69 -24 90 0 21 -11 60 -25 87 -13 26 -30 82 -36 123 -13
77 -29 121 -76 199 -15 25 -31 69 -37 99 -6 29 -14 50 -19 46z m-541 -643 c58
-31 111 -85 119 -119 9 -43 -18 -143 -60 -220 -19 -34 -35 -71 -35 -81 0 -29
-131 -195 -141 -179 -15 23 -10 54 13 83 20 25 22 40 23 169 1 81 7 151 13
162 8 15 8 32 1 58 -10 36 -6 76 12 124 10 27 10 27 55 3z m619 -113 c12 -45
26 -90 29 -98 4 -11 -7 -24 -36 -43 -23 -15 -47 -27 -53 -27 -17 0 -6 179 13
221 9 20 18 36 20 34 2 -2 14 -41 27 -87z m-1233 52 c29 -7 56 -21 68 -37 38
-49 18 -142 -40 -183 -18 -13 -39 -39 -47 -58 -19 -45 -98 -129 -145 -153 -37
-19 -38 -19 -38 -1 0 10 5 44 11 75 10 47 9 64 -5 107 -26 78 -42 218 -27 233
36 36 123 43 223 17z m-252 -52 c0 -7 -4 -19 -9 -26 -6 -11 -10 -10 -16 5 -7
16 -8 15 -14 -7 -4 -15 -15 -26 -28 -28 -12 -2 -25 -14 -31 -30 -5 -15 -20
-56 -33 -92 -20 -54 -23 -80 -21 -152 4 -103 1 -105 -93 -64 -63 28 -70 23
-23 -16 27 -22 29 -28 14 -28 -18 0 -18 -1 -3 -18 18 -20 11 -38 -18 -44 -18
-4 -17 -6 8 -18 17 -8 26 -19 22 -27 -3 -9 6 -18 25 -25 22 -7 30 -16 30 -34
0 -17 7 -25 25 -30 19 -5 25 -13 25 -35 0 -24 -5 -29 -36 -35 -53 -10 -80 9
-94 65 -6 25 -20 69 -30 97 -10 28 -16 60 -14 71 4 15 0 22 -15 26 -18 4 -21
12 -20 50 2 31 -5 56 -20 80 -19 31 -33 83 -55 204 -5 30 -2 34 34 53 47 24
57 25 40 5 -16 -19 -8 -19 38 2 20 9 66 20 102 24 36 5 88 15 115 23 63 18 95
20 95 4z m-465 -590 c12 -45 26 -90 29 -98 4 -10 -8 -24 -37 -42 -24 -16 -48
-28 -53 -28 -15 0 -4 193 12 211 8 8 14 24 14 34 0 33 11 9 35 -77z m315 -148
c0 -5 -8 -10 -17 -10 -15 0 -16 2 -3 10 19 12 20 12 20 0z"/>
<path d="M4524 18145 c0 -24 -6 -50 -12 -57 -6 -8 -7 -19 -3 -27 11 -18 31 40
31 90 0 54 -15 49 -16 -6z"/>
<path d="M3757 18183 c-12 -11 -8 -62 10 -134 l16 -69 28 48 c15 26 39 54 53
62 27 14 45 56 30 69 -24 20 -124 38 -137 24z"/>
<path d="M3351 18068 l-43 -20 6 -46 c7 -53 31 -91 64 -103 20 -8 22 -5 22 27
0 19 11 62 25 96 14 34 25 63 25 65 0 10 -61 -2 -99 -19z"/>
<path d="M3451 17526 c-14 -17 -1 -28 19 -16 11 7 12 12 4 20 -8 8 -14 7 -23
-4z"/>
<path d="M4785 18938 c-36 -20 -67 -52 -81 -87 -11 -27 -47 -194 -57 -270 -1
-7 30 -37 70 -67 l72 -54 11 41 c6 23 15 49 20 58 5 9 14 45 20 81 7 36 18 72
25 80 17 21 26 147 13 193 -10 33 -15 37 -42 37 -17 0 -40 -6 -51 -12z"/>
<path d="M4960 18935 c0 -8 7 -15 15 -15 8 0 15 7 15 15 0 8 -7 15 -15 15 -8
0 -15 -7 -15 -15z"/>
<path d="M6011 18383 c-12 -241 -25 -440 -27 -442 -3 -3 -43 33 -89 79 l-85
84 -2 157 -3 157 -118 -114 -117 -115 27 -23 c20 -18 27 -32 27 -61 0 -32 -6
-44 -37 -70 l-37 -32 11 -52 c10 -46 9 -55 -7 -72 -21 -23 -32 -24 -56 -2 -17
15 -18 15 -9 -13 32 -104 42 -144 37 -153 -3 -5 1 -27 8 -49 10 -28 13 -63 9
-114 -5 -60 -2 -83 15 -123 11 -28 26 -74 32 -103 7 -29 19 -61 29 -73 16 -19
16 -19 17 11 1 20 12 43 31 63 16 18 34 44 41 59 13 31 62 49 103 37 15 -4 33
-3 40 2 24 15 75 10 101 -11 30 -23 48 -85 48 -162 1 -94 15 -132 85 -218 64
-79 65 -80 65 -48 0 18 -9 65 -20 103 -16 56 -21 111 -25 270 -7 240 -6 258 3
267 4 4 5 49 2 100 -3 51 -2 107 2 124 10 38 46 64 88 64 l30 0 0 75 c0 61
-17 143 -90 438 -50 199 -94 370 -98 380 -4 10 -18 -179 -31 -420z"/>
<path d="M4380 18700 c0 -5 5 -10 11 -10 5 0 7 5 4 10 -3 6 -8 10 -11 10 -2 0
-4 -4 -4 -10z"/>
<path d="M4142 18650 c-18 -4 -36 -11 -39 -14 -7 -7 45 2 87 15 35 10 -3 10
-48 -1z"/>
<path d="M4292 18623 c2 -10 10 -18 18 -18 8 0 16 8 18 18 2 12 -3 17 -18 17
-15 0 -20 -5 -18 -17z"/>
<path d="M3840 18510 c-13 -8 -13 -10 2 -10 9 0 20 5 23 10 8 13 -5 13 -25 0z"/>
<path d="M2835 18348 c-67 -37 -87 -77 -115 -227 -10 -58 -31 -155 -45 -216
-23 -93 -28 -143 -34 -325 -8 -244 -12 -259 -99 -355 -64 -71 -82 -104 -82
-151 0 -46 8 -57 118 -152 57 -49 63 -59 87 -133 44 -139 76 -179 146 -179 34
0 43 5 69 41 23 33 27 45 19 56 -7 7 -15 67 -19 132 -5 66 -11 125 -15 131 -4
7 -10 35 -14 63 l-6 52 -50 8 c-32 5 -63 5 -87 -2 -65 -20 -118 16 -118 78 0
26 7 44 23 58 26 25 80 53 100 53 8 0 41 26 73 59 59 58 59 58 63 127 3 38 4
94 3 124 -8 237 -5 326 10 360 9 19 21 64 28 100 6 36 18 72 25 80 17 21 26
147 13 193 -10 33 -15 37 -42 37 -17 0 -40 -6 -51 -12z"/>
<path d="M3010 18345 c0 -8 7 -15 15 -15 8 0 15 7 15 15 0 8 -7 15 -15 15 -8
0 -15 -7 -15 -15z"/>
<path d="M3252 18307 c-24 -13 -40 -26 -36 -30 8 -8 56 16 73 37 17 20 15 20
-37 -7z"/>
<path d="M4875 18270 c3 -5 8 -10 11 -10 2 0 4 5 4 10 0 6 -5 10 -11 10 -5 0
-7 -4 -4 -10z"/>
<path d="M5401 18116 c-14 -17 -1 -28 19 -16 11 7 12 12 4 20 -8 8 -14 7 -23
-4z"/>
<path d="M4102 17833 c-17 -34 -43 -74 -58 -90 l-26 -28 29 -12 c16 -6 45 -14
66 -18 l37 -7 -1 88 c0 49 -4 98 -8 109 -7 17 -13 11 -39 -42z"/>
<path d="M6195 17735 c3 -55 8 -120 11 -145 5 -40 3 -43 -9 -28 -12 15 -13 -7
-11 -155 3 -195 9 -264 30 -325 11 -32 13 -89 12 -232 -2 -105 -4 -190 -5
-190 -6 0 -80 120 -100 163 -30 63 -77 131 -133 191 -50 53 -67 109 -70 221
-1 33 -4 53 -7 45 -3 -8 -10 -26 -15 -39 -7 -19 -11 -21 -23 -11 -12 10 -15
10 -15 -1 0 -24 -20 13 -20 38 0 12 -5 25 -11 29 -15 9 -31 -18 -19 -30 6 -6
10 -20 10 -33 0 -17 -4 -21 -17 -16 -12 5 -15 2 -11 -9 3 -8 -9 -44 -28 -79
-31 -57 -34 -69 -28 -116 3 -29 10 -119 15 -200 5 -81 11 -177 14 -213 l5 -65
-28 85 c-16 47 -36 99 -45 117 -9 18 -17 50 -17 72 0 22 -11 60 -25 88 -13 26
-30 82 -36 123 -13 77 -28 118 -79 205 -16 27 -32 71 -35 97 -8 55 -25 55 -25
0 0 -34 -1 -35 -15 -16 -14 18 -14 18 -15 -8 0 -17 -5 -28 -14 -28 -19 0 -34
-44 -39 -111 -2 -36 -10 -63 -20 -74 -15 -15 -22 -48 -18 -82 1 -7 -7 -34 -18
-60 -24 -60 -37 -220 -16 -203 19 16 22 -16 11 -122 l-9 -88 -33 -6 c-19 -3
-41 -4 -49 0 -18 6 -48 -8 -87 -43 -21 -18 -34 -23 -61 -18 -23 4 -40 0 -58
-14 -14 -11 -41 -19 -64 -19 -24 0 -56 -10 -80 -25 -24 -15 -55 -25 -77 -25
-21 0 -38 -4 -38 -10 0 -5 13 -10 29 -10 17 0 33 -4 36 -10 3 -5 1 -10 -4 -10
-8 0 -7 -7 0 -22 7 -13 15 -30 19 -38 4 -8 21 -18 38 -22 18 -5 47 -12 65 -16
19 -5 41 -4 55 1 28 13 31 10 38 -45 6 -42 3 -49 -28 -84 -19 -22 -60 -76 -93
-122 -65 -91 -75 -92 -80 -4 -1 26 -10 61 -19 77 -9 17 -16 35 -16 42 0 7 -9
21 -21 32 -12 11 -23 37 -26 63 -3 23 -12 46 -19 51 -19 11 -10 151 14 212 10
28 22 76 26 108 4 34 19 84 37 120 40 78 146 187 183 187 19 0 26 -5 26 -18 0
-10 11 -29 25 -42 14 -13 31 -44 37 -67 13 -52 28 -56 28 -7 0 19 4 33 9 29 6
-3 13 1 18 8 12 20 44 29 58 17 10 -8 15 -8 21 1 4 7 0 17 -8 23 -9 7 -17 37
-21 76 -8 71 -26 94 -102 130 -66 31 -108 34 -187 14 -60 -14 -81 -25 -121
-63 -75 -70 -167 -268 -183 -391 -4 -30 -13 -63 -22 -72 -14 -17 -18 -15 -55
25 -22 23 -39 50 -38 60 2 12 -5 17 -23 17 -13 0 -26 -4 -28 -10 -5 -14 -48 0
-48 16 0 8 9 14 20 14 27 0 25 22 -5 50 -14 13 -25 34 -25 46 0 19 -6 22 -37
22 -21 1 -68 3 -105 5 -51 2 -68 0 -68 -10 0 -7 -14 -19 -30 -28 -39 -20 -129
-108 -169 -164 -17 -25 -31 -57 -31 -73 0 -23 -14 -55 -37 -87 -2 -3 -18 9
-36 26 -44 43 -202 141 -249 155 -34 10 -39 16 -44 49 -7 43 -24 43 -24 0 0
-27 -1 -27 -72 -29 -39 -2 -109 -12 -155 -22 -82 -20 -243 -93 -243 -111 0
-11 44 -2 82 17 41 21 46 16 13 -12 -29 -25 -29 -26 -5 -19 65 17 70 18 70 1
0 -20 39 -36 89 -36 36 0 37 -1 38 -37 0 -21 2 -135 4 -253 2 -118 7 -220 11
-225 4 -6 4 -64 0 -130 -6 -95 -5 -121 7 -132 10 -10 12 -28 7 -66 -6 -45 -15
-59 -62 -109 -30 -31 -54 -63 -54 -72 0 -8 -18 -36 -40 -61 -22 -25 -40 -51
-40 -57 0 -5 -39 -48 -87 -94 -47 -46 -83 -87 -80 -91 4 -3 16 3 27 15 12 12
25 22 30 22 6 0 44 32 85 71 42 40 78 69 82 66 3 -4 0 -13 -7 -22 -29 -35 9
-11 50 31 38 38 105 84 125 84 3 0 5 -21 6 -47 l1 -48 15 66 c14 61 20 70 68
110 30 24 65 65 79 90 39 70 103 145 144 171 20 12 43 29 50 38 34 40 128 190
143 230 17 43 18 44 20 15 1 -29 1 -29 8 -5 7 24 8 23 20 -15 53 -161 149
-253 282 -270 91 -11 126 4 210 93 41 42 88 104 105 136 l32 59 17 -53 c20
-59 87 -135 129 -146 16 -4 23 -11 19 -20 -3 -8 0 -14 6 -14 6 0 11 4 11 9 0
5 28 11 63 13 57 4 145 35 136 49 -2 3 9 23 25 44 16 21 24 35 18 31 -16 -10
-15 -1 3 34 18 34 35 39 35 10 0 -11 5 -20 10 -20 6 0 10 -12 10 -28 0 -15 7
-37 15 -50 9 -12 20 -56 24 -97 10 -82 21 -111 21 -53 0 72 12 127 26 121 10
-4 14 4 14 25 0 17 5 34 10 37 14 8 13 78 -1 109 -9 20 -8 33 5 67 12 29 15
55 10 85 l-6 44 47 0 c44 0 47 -2 42 -22 -4 -12 -1 -28 6 -36 12 -15 20 -67
37 -256 5 -60 11 -111 13 -113 3 -2 8 40 12 94 6 86 9 95 21 78 14 -18 14 -18
15 1 1 10 1 24 0 31 -1 7 7 29 17 50 24 47 35 138 22 182 -12 43 -5 58 35 71
19 6 50 22 70 36 20 13 41 22 46 18 5 -3 21 2 35 11 14 9 27 15 29 13 2 -2 13
-36 25 -76 11 -40 28 -76 36 -79 8 -3 28 -32 45 -64 16 -33 33 -59 37 -59 14
0 61 -112 72 -172 6 -32 14 -58 17 -58 6 0 -5 130 -14 168 -4 17 -2 21 11 16
14 -6 15 -2 0 37 -9 26 -16 84 -17 144 -2 90 0 100 16 97 13 -2 17 4 17 30 0
18 7 42 15 52 8 11 15 41 15 67 0 36 5 50 21 60 20 14 19 14 -13 14 -27 0 -34
4 -36 23 -2 13 4 41 12 63 9 22 16 56 16 77 l1 37 32 -37 c17 -20 52 -62 77
-94 52 -66 71 -86 130 -133 36 -29 41 -38 36 -62 -5 -29 8 -41 17 -16 3 6 6
-2 6 -20 1 -17 -4 -33 -10 -35 -11 -4 -2 -38 11 -38 4 0 12 13 18 28 8 24 15
28 52 29 52 2 60 9 93 76 20 41 25 65 23 107 -5 88 -16 171 -31 225 -8 28 -19
136 -25 240 -11 209 -19 273 -30 255 -4 -7 -15 32 -25 86 -10 55 -26 113 -36
131 -10 18 -23 56 -29 85 -28 142 -39 206 -40 233 0 17 -5 37 -11 45 -7 11 -9
-13 -4 -85z m-630 -1127 c12 -45 26 -90 29 -98 4 -10 -8 -24 -37 -42 -24 -16
-48 -28 -53 -28 -15 0 -4 193 12 211 8 8 14 24 14 34 0 33 11 9 35 -77z
m-1119 -43 c51 -30 78 -67 42 -57 -18 4 -20 2 -14 -14 32 -79 38 -106 27 -132
-6 -15 -13 -92 -14 -172 -4 -173 -11 -190 -97 -249 -70 -48 -121 -54 -164 -20
-39 31 -49 56 -54 139 -10 176 -7 212 19 265 14 28 36 87 50 131 l24 82 45 5
c34 4 53 0 78 -15 35 -21 53 -18 34 5 -7 8 -9 17 -5 20 3 4 -2 9 -11 13 -15 6
-23 24 -9 24 3 0 26 -11 49 -25z m884 -192 c0 -13 -9 -27 -22 -34 -13 -7 -36
-26 -53 -43 -25 -27 -29 -29 -33 -12 -2 10 1 23 7 29 6 6 11 21 11 33 0 13 5
26 10 29 6 4 8 10 5 15 -3 5 7 16 22 24 25 13 29 13 41 -1 6 -9 12 -27 12 -40z
m480 -2 c0 -11 5 -23 10 -26 6 -3 10 -18 10 -33 -1 -27 -1 -26 -20 8 -21 38
-26 70 -10 70 6 0 10 -9 10 -19z m-2144 -40 c58 -31 111 -85 119 -119 9 -43
-18 -143 -60 -220 -19 -34 -35 -71 -35 -81 0 -29 -131 -195 -141 -179 -15 23
-10 54 13 83 20 25 22 40 23 170 1 78 7 150 12 160 7 11 7 32 1 58 -9 39 -5
78 13 125 10 27 10 27 55 3z"/>
<path d="M4310 16413 c-7 -27 -26 -79 -43 -117 -26 -62 -28 -76 -22 -125 5
-31 11 -83 14 -115 8 -79 24 -89 84 -50 25 16 49 36 52 44 4 8 8 74 11 145 2
72 6 151 10 177 6 47 6 47 -35 67 -22 12 -44 21 -49 21 -5 0 -15 -21 -22 -47z"/>
<path d="M3684 16165 c0 -24 -6 -50 -12 -57 -6 -8 -7 -19 -3 -27 11 -18 31 40
31 90 0 54 -15 49 -16 -6z"/>
<path d="M5134 17803 c-30 -15 -32 -19 -39 -96 -4 -45 -13 -97 -20 -116 -7
-20 -16 -54 -20 -75 -4 -21 -12 -48 -20 -60 -7 -12 -16 -43 -19 -71 -10 -73
-24 -102 -57 -115 -54 -23 -111 11 -123 72 -3 17 -6 58 -6 91 0 33 -7 88 -15
121 -8 34 -16 74 -17 91 -3 26 -8 31 -42 36 -35 6 -42 3 -64 -23 -13 -16 -37
-35 -53 -44 -16 -8 -47 -37 -69 -65 l-40 -51 25 -30 c14 -16 25 -33 25 -36 0
-4 22 -23 49 -42 52 -37 71 -65 71 -106 0 -36 -15 -60 -48 -73 -41 -17 -67
-11 -155 37 -43 24 -85 42 -94 40 -9 -2 -22 -21 -30 -43 -23 -70 -82 -95 -137
-60 -21 14 -24 13 -51 -15 -15 -16 -44 -35 -64 -41 -20 -6 -47 -21 -61 -34
-76 -68 -141 -107 -176 -107 -50 0 -86 36 -86 87 0 34 8 46 81 119 44 45 94
100 110 122 l29 41 -96 22 c-54 12 -112 24 -129 27 l-33 7 0 -55 c0 -31 -7
-74 -15 -97 -12 -36 -12 -47 0 -88 17 -54 20 -189 6 -226 -23 -60 10 -55 171
29 136 70 288 120 391 129 l87 7 0 -134 0 -133 35 -28 c19 -15 35 -36 35 -47
0 -10 16 -36 36 -56 40 -43 43 -42 70 41 28 84 103 228 137 263 56 59 111 90
188 108 128 29 222 7 315 -72 53 -45 64 -44 64 5 0 9 9 34 20 56 11 22 20 56
20 76 0 21 5 50 10 65 8 19 7 30 -1 40 -7 8 -12 33 -12 56 0 32 6 47 25 63 13
11 23 25 22 30 -23 91 -39 129 -64 157 -17 18 -30 38 -30 45 0 7 -15 30 -34
51 -19 21 -41 57 -48 80 -15 47 -12 46 -54 25z"/>
<path d="M2925 17680 c3 -5 8 -10 11 -10 2 0 4 5 4 10 0 6 -5 10 -11 10 -5 0
-7 -4 -4 -10z"/>
<path d="M5400 17345 c0 -8 7 -15 15 -15 8 0 15 7 15 15 0 8 -7 15 -15 15 -8
0 -15 -7 -15 -15z"/>
<path d="M5890 17340 c0 -5 5 -10 11 -10 5 0 7 5 4 10 -3 6 -8 10 -11 10 -2 0
-4 -4 -4 -10z"/>
<path d="M5726 17263 c-12 -12 -6 -33 9 -33 8 0 15 6 15 14 0 17 -14 28 -24
19z"/>
<path d="M3184 17212 c-31 -16 -32 -20 -38 -101 -4 -47 -14 -97 -22 -112 -21
-42 -17 -75 16 -121 43 -59 64 -136 51 -186 -6 -22 -20 -51 -31 -65 l-21 -26
44 19 c24 11 74 27 112 35 53 13 74 23 100 50 18 19 40 35 49 35 21 0 20 15
-3 48 -11 15 -25 54 -31 87 -13 62 -44 135 -59 135 -4 0 -16 18 -26 39 -9 22
-30 52 -45 66 -16 15 -34 47 -41 71 -15 50 -13 49 -55 26z"/>
<path d="M5670 17154 c0 -8 5 -12 10 -9 6 4 8 11 5 16 -9 14 -15 11 -15 -7z"/>
<path d="M3740 16837 c0 -13 -5 -28 -12 -35 -8 -8 -4 -34 17 -105 27 -90 30
-94 78 -126 27 -18 50 -31 51 -29 44 74 89 134 133 174 l55 52 -65 46 -65 46
-96 0 c-94 0 -96 -1 -96 -23z"/>
<path d="M4958 16733 c-46 -49 -74 -106 -83 -168 -4 -28 -9 -58 -11 -67 -5
-16 -3 -16 30 -3 19 8 48 15 63 15 46 0 85 32 119 98 4 7 -2 25 -13 40 -10 15
-27 48 -37 75 -10 26 -21 47 -25 47 -4 0 -23 -17 -43 -37z"/>
<path d="M5181 16757 c-6 -6 -11 -15 -11 -20 0 -12 43 -4 47 9 5 16 -22 25
-36 11z"/>
<path d="M3535 16720 c-3 -5 1 -10 10 -10 9 0 13 5 10 10 -3 6 -8 10 -10 10
-2 0 -7 -4 -10 -10z"/>
<path d="M5315 16680 c3 -5 8 -10 11 -10 2 0 4 5 4 10 0 6 -5 10 -11 10 -5 0
-7 -4 -4 -10z"/>
<path d="M3452 16643 c2 -10 10 -18 18 -18 8 0 16 8 18 18 2 12 -3 17 -18 17
-15 0 -20 -5 -18 -17z"/>
<path d="M3015 16545 c-5 -2 -29 -9 -53 -15 -84 -22 -151 -109 -152 -198 0
-78 30 -113 132 -153 71 -28 117 -64 135 -108 16 -37 32 -251 19 -251 -4 0
-17 5 -29 11 -18 10 -17 6 7 -19 l28 -30 -3 -144 c-4 -143 -5 -145 -41 -219
-20 -41 -69 -114 -107 -164 -121 -155 -149 -217 -125 -280 8 -21 56 -45 91
-45 27 0 344 145 396 182 37 27 80 85 72 98 -4 7 -21 -2 -45 -24 -21 -18 -51
-37 -68 -41 -17 -3 -36 -13 -42 -21 -7 -7 -43 -37 -81 -65 -53 -39 -77 -51
-105 -51 -40 0 -81 32 -84 67 -5 53 3 68 88 153 100 101 141 151 170 207 11
22 37 56 57 75 45 42 56 68 42 95 -7 13 -11 122 -13 295 -3 481 0 439 -30 446
-20 5 -32 0 -55 -24 -17 -17 -40 -32 -52 -34 -30 -5 -80 9 -92 25 -5 8 -23 17
-40 21 -49 12 -75 44 -75 90 0 34 7 47 42 83 38 39 41 48 13 38z"/>
<path d="M5126 16531 c-3 -5 1 -14 8 -20 16 -13 32 2 21 19 -8 12 -22 13 -29
1z"/>
<path d="M3045 16430 c-3 -5 -1 -10 4 -10 6 0 11 5 11 10 0 6 -2 10 -4 10 -3
0 -8 -4 -11 -10z"/>
<path d="M3137 16404 c-14 -14 -7 -35 11 -32 9 2 17 10 17 17 0 16 -18 25 -28
15z"/>
<path d="M4784 16296 c-8 -22 3 -33 18 -18 9 9 9 15 0 24 -9 9 -13 7 -18 -6z"/>
<path d="M6313 16285 c-7 -20 2 -29 21 -22 9 4 13 13 10 22 -8 19 -23 19 -31
0z"/>
<path d="M4880 16177 c0 -3 7 -22 16 -42 l15 -38 18 29 c12 20 15 31 7 35 -17
10 -56 21 -56 16z"/>
<path d="M5035 15860 c-3 -5 -1 -10 4 -10 6 0 11 5 11 10 0 6 -2 10 -4 10 -3
0 -8 -4 -11 -10z"/>
</g>
</svg>
