<?xml version="1.0" encoding="UTF-8"?>
<!DOCTYPE svg PUBLIC "-//W3C//DTD SVG 1.1//EN" "http://www.w3.org/Graphics/SVG/1.1/DTD/svg11.dtd">
<svg xmlns="http://www.w3.org/2000/svg" version="1.1" width="217px" height="566px" style="shape-rendering:geometricPrecision; text-rendering:geometricPrecision; image-rendering:optimizeQuality; fill-rule:evenodd; clip-rule:evenodd" xmlns:xlink="http://www.w3.org/1999/xlink">
<g><path style="opacity:0.998" fill="#ceca3f" d="M 121.5,67.5 C 120.194,70.6868 120.194,74.0202 121.5,77.5C 125.187,77.1467 127.187,75.1467 127.5,71.5C 129.25,72.6594 130.25,74.326 130.5,76.5C 129.5,76.5 128.5,76.5 127.5,76.5C 126.561,81.8034 125.727,87.1368 125,92.5C 119.819,103.403 114.652,114.236 109.5,125C 111.162,128.34 113.828,130.506 117.5,131.5C 118.246,132.736 118.579,134.07 118.5,135.5C 124.522,136.502 130.522,137.502 136.5,138.5C 138.63,141.737 141.63,143.737 145.5,144.5C 149.141,147.968 152.974,151.302 157,154.5C 158.734,157.298 159.901,160.298 160.5,163.5C 158.572,169.453 156.738,175.453 155,181.5C 153.64,184.023 151.807,186.023 149.5,187.5C 148.868,185.257 147.534,183.591 145.5,182.5C 145.087,176.358 143.921,170.358 142,164.5C 141.483,170.689 140.65,176.689 139.5,182.5C 137.231,180.004 135.898,177.004 135.5,173.5C 134.148,174.524 132.815,175.524 131.5,176.5C 129.411,176.143 127.411,175.477 125.5,174.5C 123.142,168.251 120.309,162.251 117,156.5C 115.085,155.084 113.585,155.418 112.5,157.5C 110.97,158.067 109.47,158.733 108,159.5C 107.252,168.48 105.586,168.48 103,159.5C 102.505,161.473 102.338,163.473 102.5,165.5C 101.844,164.722 101.011,164.056 100,163.5C 95.8923,166.258 91.7257,168.925 87.5,171.5C 81.8576,172.488 76.8576,174.822 72.5,178.5C 71.4152,174.583 69.0819,173.583 65.5,175.5C 63.2075,175.244 61.0408,175.577 59,176.5C 58.8247,181.019 58.3247,185.353 57.5,189.5C 55.9362,181.106 56.2696,172.772 58.5,164.5C 55.7497,160.668 53.2497,156.668 51,152.5C 50.9822,150.203 51.1489,147.869 51.5,145.5C 54.1667,143.833 56.8333,142.167 59.5,140.5C 70.4724,138.727 81.4724,137.06 92.5,135.5C 91.5606,124.798 90.2273,114.131 88.5,103.5C 89.798,90.6077 93.1313,78.2744 98.5,66.5C 96.3449,65.9986 94.6782,64.9986 93.5,63.5C 96.428,62.1803 99.7614,61.5136 103.5,61.5C 110.748,60.1404 116.748,62.1404 121.5,67.5 Z"/></g>
<g><path style="opacity:0.981" fill="#d9e2e7" d="M 93.5,63.5 C 94.6782,64.9986 96.3449,65.9986 98.5,66.5C 93.1313,78.2744 89.798,90.6077 88.5,103.5C 90.2273,114.131 91.5606,124.798 92.5,135.5C 81.4724,137.06 70.4724,138.727 59.5,140.5C 61.2696,138.887 62.4363,136.887 63,134.5C 66.0567,117.606 70.0567,100.94 75,84.5C 78.2516,79.6657 81.2516,74.6657 84,69.5C 86.8012,66.8533 89.9679,64.8533 93.5,63.5 Z"/></g>
<g><path style="opacity:0.889" fill="#7c7521" d="M 121.5,67.5 C 123.19,69.3417 125.19,70.675 127.5,71.5C 127.187,75.1467 125.187,77.1467 121.5,77.5C 120.194,74.0202 120.194,70.6868 121.5,67.5 Z"/></g>
<g><path style="opacity:0.986" fill="#7c7521" d="M 130.5,76.5 C 131.504,77.6828 132.338,79.0161 133,80.5C 136.261,95.73 138.761,111.063 140.5,126.5C 138.593,130.313 137.26,134.313 136.5,138.5C 130.522,137.502 124.522,136.502 118.5,135.5C 118.579,134.07 118.246,132.736 117.5,131.5C 113.828,130.506 111.162,128.34 109.5,125C 114.652,114.236 119.819,103.403 125,92.5C 125.727,87.1368 126.561,81.8034 127.5,76.5C 128.5,76.5 129.5,76.5 130.5,76.5 Z"/></g>
<g><path style="opacity:0.953" fill="#1b1f23" d="M 140.5,126.5 C 142.226,128.942 143.726,131.609 145,134.5C 148.501,136.488 151.668,138.822 154.5,141.5C 151.792,143.353 148.792,144.353 145.5,144.5C 141.63,143.737 138.63,141.737 136.5,138.5C 137.26,134.313 138.593,130.313 140.5,126.5 Z"/></g>
<g><path style="opacity:1" fill="#817a22" d="M 102.5,140.5 C 113.416,139.744 124.083,140.91 134.5,144C 135.167,145 135.833,146 136.5,147C 125.371,147.689 114.538,146.189 104,142.5C 102.97,142.164 102.47,141.497 102.5,140.5 Z"/></g>
<g><path style="opacity:0.999" fill="#7a7321" d="M 154.5,141.5 C 164.772,150.369 171.772,161.369 175.5,174.5C 173.629,174.859 172.129,175.859 171,177.5C 169.931,180.208 168.764,182.875 167.5,185.5C 171.393,185.173 174.893,186.506 178,189.5C 178.963,198.022 178.13,206.355 175.5,214.5C 174.719,213.263 173.719,212.263 172.5,211.5C 170.002,213.462 169.002,215.795 169.5,218.5C 173.912,217.03 178.245,215.363 182.5,213.5C 183.208,219.187 183.875,224.854 184.5,230.5C 181.582,233.231 181.915,235.397 185.5,237C 181.6,239.951 181.933,242.618 186.5,245C 183.774,245.182 181.107,245.682 178.5,246.5C 181.376,249.868 181.043,252.868 177.5,255.5C 179.401,256.935 179.734,258.602 178.5,260.5C 179.654,264.117 180.654,267.784 181.5,271.5C 179.611,274.996 178.445,278.663 178,282.5C 180.124,281.773 182.291,281.106 184.5,280.5C 185.5,287.163 186.5,293.83 187.5,300.5C 186.396,305.313 185.396,310.146 184.5,315C 185.09,319.189 185.756,323.356 186.5,327.5C 181.17,326.334 176.003,324.668 171,322.5C 169.759,310.186 168.759,297.853 168,285.5C 159.859,263.196 157.192,240.196 160,216.5C 160.541,208.965 161.374,201.465 162.5,194C 161.386,189.989 159.886,186.155 158,182.5C 156.237,187.306 154.404,191.972 152.5,196.5C 151.079,193.706 150.079,190.706 149.5,187.5C 151.807,186.023 153.64,184.023 155,181.5C 156.738,175.453 158.572,169.453 160.5,163.5C 159.901,160.298 158.734,157.298 157,154.5C 152.974,151.302 149.141,147.968 145.5,144.5C 148.792,144.353 151.792,143.353 154.5,141.5 Z"/></g>
<g><path style="opacity:0.95" fill="#d8e2e6" d="M 51.5,145.5 C 51.1489,147.869 50.9822,150.203 51,152.5C 53.2497,156.668 55.7497,160.668 58.5,164.5C 56.2696,172.772 55.9362,181.106 57.5,189.5C 58.4676,194.188 58.4676,198.855 57.5,203.5C 56.5832,202.873 55.5832,202.539 54.5,202.5C 54.2302,198.184 53.2302,194.184 51.5,190.5C 48.7728,183.156 45.9395,175.823 43,168.5C 43.476,174.965 42.476,181.298 40,187.5C 39.5002,196.16 39.3336,204.827 39.5,213.5C 35.9356,213.151 32.6022,213.817 29.5,215.5C 31.0467,218.761 32.7134,221.928 34.5,225C 33.0531,232.182 31.5531,239.349 30,246.5C 28.0528,247.11 26.2194,247.943 24.5,249C 27.3091,253.4 28.6424,258.234 28.5,263.5C 26.2753,279.814 26.2753,296.148 28.5,312.5C 27.194,310.527 25.5273,308.861 23.5,307.5C 22.5054,301.545 21.672,295.545 21,289.5C 15.0181,244.69 20.3514,201.357 37,159.5C 40.2048,153.147 45.0382,148.481 51.5,145.5 Z"/></g>
<g><path style="opacity:1" fill="#878125" d="M 141.5,150.5 C 143.632,151.803 145.298,153.637 146.5,156C 145.118,157.933 143.618,159.766 142,161.5C 141.501,157.848 141.335,154.182 141.5,150.5 Z"/></g>
<g><path style="opacity:1" fill="#444318" d="M 111.5,160.5 C 111.699,163.941 111.199,167.274 110,170.5C 109.283,169.956 108.783,169.289 108.5,168.5C 108.336,165.813 108.503,163.146 109,160.5C 109.977,159.226 110.811,159.226 111.5,160.5 Z"/></g>
<g><path style="opacity:1" fill="#86812e" d="M 112.5,157.5 C 112.737,158.791 112.404,159.791 111.5,160.5C 110.811,159.226 109.977,159.226 109,160.5C 108.503,163.146 108.336,165.813 108.5,168.5C 106.033,168.245 104.033,167.245 102.5,165.5C 102.338,163.473 102.505,161.473 103,159.5C 105.586,168.48 107.252,168.48 108,159.5C 109.47,158.733 110.97,158.067 112.5,157.5 Z"/></g>
<g><path style="opacity:1" fill="#807923" d="M 145.5,182.5 C 144.662,182.842 144.328,183.508 144.5,184.5C 142.694,183.976 141.028,183.309 139.5,182.5C 140.65,176.689 141.483,170.689 142,164.5C 143.921,170.358 145.087,176.358 145.5,182.5 Z"/></g>
<g><path style="opacity:1" fill="#837c26" d="M 139.5,182.5 C 136.886,185.968 135.886,189.968 136.5,194.5C 134.517,194.157 133.183,194.824 132.5,196.5C 130.991,191.668 129.325,186.835 127.5,182C 129.746,180.743 131.079,178.91 131.5,176.5C 132.815,175.524 134.148,174.524 135.5,173.5C 135.898,177.004 137.231,180.004 139.5,182.5 Z"/></g>
<g><path style="opacity:1" fill="#cfcb41" d="M 51.5,190.5 C 50.4168,190.461 49.4168,190.127 48.5,189.5C 48.1667,190.333 47.8333,191.167 47.5,192C 48.8896,196.73 49.5563,201.564 49.5,206.5C 48.4836,218.18 47.317,229.847 46,241.5C 43.8333,243 41.6667,244.5 39.5,246C 42.0168,248.349 44.3501,250.849 46.5,253.5C 42.3722,258.929 38.3722,264.429 34.5,270C 36.8423,271.959 39.509,273.459 42.5,274.5C 41.6533,275.845 40.4866,276.845 39,277.5C 38.8333,278.833 38.6667,280.167 38.5,281.5C 38.2144,292.833 38.2144,304.166 38.5,315.5C 38.2648,316.097 37.7648,316.43 37,316.5C 33.9357,315.435 31.1024,314.101 28.5,312.5C 26.2753,296.148 26.2753,279.814 28.5,263.5C 28.6424,258.234 27.3091,253.4 24.5,249C 26.2194,247.943 28.0528,247.11 30,246.5C 31.5531,239.349 33.0531,232.182 34.5,225C 32.7134,221.928 31.0467,218.761 29.5,215.5C 32.6022,213.817 35.9356,213.151 39.5,213.5C 39.3336,204.827 39.5002,196.16 40,187.5C 42.476,181.298 43.476,174.965 43,168.5C 45.9395,175.823 48.7728,183.156 51.5,190.5 Z"/></g>
<g><path style="opacity:0.98" fill="#181d22" d="M 175.5,174.5 C 182.658,194.146 186.825,214.479 188,235.5C 188.233,268.224 189.233,300.89 191,333.5C 188.421,341.708 182.921,344.541 174.5,342C 173.069,341.535 171.903,340.701 171,339.5C 168.508,322.232 166.174,304.899 164,287.5C 162.469,279.709 160.469,272.042 158,264.5C 157.005,259.547 156.338,254.547 156,249.5C 155.488,254.225 154.655,258.891 153.5,263.5C 154.374,273.665 156.207,283.665 159,293.5C 160.366,314.855 162.032,336.189 164,357.5C 164.333,369.5 164.667,381.5 165,393.5C 167.697,399.921 169.364,406.588 170,413.5C 171.481,437.491 172.814,461.491 174,485.5C 174.988,488.424 175.654,491.424 176,494.5C 176.333,507.5 176.667,520.5 177,533.5C 177.862,535.087 178.529,536.754 179,538.5C 185.04,544.209 191.374,549.543 198,554.5C 200.076,557.893 201.242,561.56 201.5,565.5C 185.167,565.5 168.833,565.5 152.5,565.5C 151.939,564.092 151.605,562.592 151.5,561C 152.827,555.214 153.327,549.38 153,543.5C 151.915,537.994 150.248,532.66 148,527.5C 145.987,508.441 142.82,489.607 138.5,471C 138.833,470.667 139.167,470.333 139.5,470C 136.161,457.31 133.328,444.476 131,431.5C 125.788,418.532 121.788,405.198 119,391.5C 116.21,385.542 111.71,381.542 105.5,379.5C 102.99,379.833 100.823,380.833 99,382.5C 96.921,386.993 94.5877,391.326 92,395.5C 90.8044,400.223 88.8044,404.557 86,408.5C 84.9153,417.506 82.5819,426.173 79,434.5C 77.0075,454.797 73.3408,474.797 68,494.5C 67.6667,502.5 67.3333,510.5 67,518.5C 64.6667,522.5 62.3333,526.5 60,530.5C 59.5931,533.682 59.0931,536.849 58.5,540C 59.5123,548.56 60.8457,557.06 62.5,565.5C 46.1667,565.5 29.8333,565.5 13.5,565.5C 18.4172,557.401 23.5838,549.401 29,541.5C 30.5621,539.043 31.5621,536.376 32,533.5C 35.1262,503.238 37.1262,472.905 38,442.5C 40.8054,435.868 41.6387,429.035 40.5,422C 41.565,396.49 42.565,370.99 43.5,345.5C 37.3885,345.791 33.3885,343.124 31.5,337.5C 31.6082,336.558 31.9415,335.725 32.5,335C 28.7898,326.076 25.7898,316.91 23.5,307.5C 25.5273,308.861 27.194,310.527 28.5,312.5C 31.1024,314.101 33.9357,315.435 37,316.5C 37.7648,316.43 38.2648,316.097 38.5,315.5C 40.8025,313.022 42.9692,310.355 45,307.5C 44.8524,296.838 44.8524,286.171 45,275.5C 46.6787,271.143 48.5121,266.809 50.5,262.5C 48.3451,261.59 46.3451,260.423 44.5,259C 46.9476,254.885 49.7809,251.052 53,247.5C 53.022,242.182 52.8553,236.849 52.5,231.5C 53.5,231.5 54.5,231.5 55.5,231.5C 55.5,232.167 55.8333,232.5 56.5,232.5C 57.0944,234.855 58.0944,237.022 59.5,239C 57.8516,244.107 56.5183,249.274 55.5,254.5C 55.1667,254.5 54.8333,254.5 54.5,254.5C 54.0074,256.806 53.6741,259.139 53.5,261.5C 51.3354,269.895 51.0021,278.395 52.5,287C 52.5485,292.932 51.8818,298.765 50.5,304.5C 49.5655,305.568 49.2322,306.901 49.5,308.5C 59.3417,308.177 69.0084,307.511 78.5,306.5C 85.2244,306.756 91.891,306.423 98.5,305.5C 110.496,308.291 122.496,308.125 134.5,305C 136.207,301.752 138.04,298.585 140,295.5C 141.825,294.897 143.659,294.23 145.5,293.5C 143.517,291.016 141.35,288.683 139,286.5C 138.116,276.611 139.949,267.278 144.5,258.5C 144.167,258.167 143.833,257.833 143.5,257.5C 136.833,261.167 130.167,264.833 123.5,268.5C 123.167,268 122.833,267.5 122.5,267C 123.296,261.464 124.296,255.964 125.5,250.5C 131.305,247.261 137.305,244.595 143.5,242.5C 145.751,237.015 147.085,231.348 147.5,225.5C 146.5,225.5 145.5,225.5 144.5,225.5C 143.114,223.062 143.447,220.729 145.5,218.5C 148.701,226.296 152.201,226.296 156,218.5C 155.381,211.116 154.214,203.783 152.5,196.5C 154.404,191.972 156.237,187.306 158,182.5C 159.886,186.155 161.386,189.989 162.5,194C 161.374,201.465 160.541,208.965 160,216.5C 157.192,240.196 159.859,263.196 168,285.5C 168.759,297.853 169.759,310.186 171,322.5C 176.003,324.668 181.17,326.334 186.5,327.5C 185.756,323.356 185.09,319.189 184.5,315C 185.396,310.146 186.396,305.313 187.5,300.5C 186.5,293.83 185.5,287.163 184.5,280.5C 182.291,281.106 180.124,281.773 178,282.5C 178.445,278.663 179.611,274.996 181.5,271.5C 180.654,267.784 179.654,264.117 178.5,260.5C 179.734,258.602 179.401,256.935 177.5,255.5C 181.043,252.868 181.376,249.868 178.5,246.5C 181.107,245.682 183.774,245.182 186.5,245C 181.933,242.618 181.6,239.951 185.5,237C 181.915,235.397 181.582,233.231 184.5,230.5C 183.875,224.854 183.208,219.187 182.5,213.5C 178.245,215.363 173.912,217.03 169.5,218.5C 169.002,215.795 170.002,213.462 172.5,211.5C 173.719,212.263 174.719,213.263 175.5,214.5C 178.13,206.355 178.963,198.022 178,189.5C 174.893,186.506 171.393,185.173 167.5,185.5C 168.764,182.875 169.931,180.208 171,177.5C 172.129,175.859 173.629,174.859 175.5,174.5 Z M 55.5,236.5 C 56.9468,237.134 57.6134,238.301 57.5,240C 56.9011,243.229 56.0678,246.396 55,249.5C 54.5845,245.152 54.7512,240.819 55.5,236.5 Z M 47.5,305.5 C 47.4021,295.745 48.2354,286.078 50,276.5C 50.2462,281.372 50.7462,286.205 51.5,291C 50.5935,296.077 49.2602,300.911 47.5,305.5 Z"/></g>
<g><path style="opacity:1" fill="#7c7523" d="M 51.5,190.5 C 53.2302,194.184 54.2302,198.184 54.5,202.5C 54.771,206.13 56.4377,207.13 59.5,205.5C 59.5,206.167 59.5,206.833 59.5,207.5C 58.0156,210.234 59.0156,211.734 62.5,212C 63.1905,213.067 63.6905,214.234 64,215.5C 64.6708,216.252 65.5041,216.586 66.5,216.5C 66.5299,217.497 66.0299,218.164 65,218.5C 63.3857,217.183 62.2191,215.517 61.5,213.5C 59.5914,212.652 57.5914,212.318 55.5,212.5C 55.5,218.833 55.5,225.167 55.5,231.5C 54.5,231.5 53.5,231.5 52.5,231.5C 52.8553,236.849 53.022,242.182 53,247.5C 49.7809,251.052 46.9476,254.885 44.5,259C 46.3451,260.423 48.3451,261.59 50.5,262.5C 48.5121,266.809 46.6787,271.143 45,275.5C 44.8524,286.171 44.8524,296.838 45,307.5C 42.9692,310.355 40.8025,313.022 38.5,315.5C 38.2144,304.166 38.2144,292.833 38.5,281.5C 38.6667,280.167 38.8333,278.833 39,277.5C 40.4866,276.845 41.6533,275.845 42.5,274.5C 39.509,273.459 36.8423,271.959 34.5,270C 38.3722,264.429 42.3722,258.929 46.5,253.5C 44.3501,250.849 42.0168,248.349 39.5,246C 41.6667,244.5 43.8333,243 46,241.5C 47.317,229.847 48.4836,218.18 49.5,206.5C 49.5563,201.564 48.8896,196.73 47.5,192C 47.8333,191.167 48.1667,190.333 48.5,189.5C 49.4168,190.127 50.4168,190.461 51.5,190.5 Z"/></g>
<g><path style="opacity:1" fill="#706e23" d="M 65.5,176.5 C 65.5,177.833 65.5,179.167 65.5,180.5C 64.5041,180.414 63.6708,180.748 63,181.5C 61.35,188.954 61.1833,196.288 62.5,203.5C 61.7095,204.401 60.7095,205.068 59.5,205.5C 59.248,196.787 59.748,188.12 61,179.5C 62.2708,178.117 63.7708,177.117 65.5,176.5 Z"/></g>
<g><path style="opacity:1" fill="#393816" d="M 65.5,180.5 C 64.7352,187.786 64.2352,195.119 64,202.5C 63.6174,203.056 63.1174,203.389 62.5,203.5C 61.1833,196.288 61.35,188.954 63,181.5C 63.6708,180.748 64.5041,180.414 65.5,180.5 Z"/></g>
<g><path style="opacity:1" fill="#afac37" d="M 65.5,175.5 C 65.5,175.833 65.5,176.167 65.5,176.5C 63.7708,177.117 62.2708,178.117 61,179.5C 59.748,188.12 59.248,196.787 59.5,205.5C 56.4377,207.13 54.771,206.13 54.5,202.5C 55.5832,202.539 56.5832,202.873 57.5,203.5C 58.4676,198.855 58.4676,194.188 57.5,189.5C 58.3247,185.353 58.8247,181.019 59,176.5C 61.0408,175.577 63.2075,175.244 65.5,175.5 Z"/></g>
<g><path style="opacity:1" fill="#373613" d="M 59.5,207.5 C 61.2646,208.461 63.2646,208.795 65.5,208.5C 65.8333,210.5 66.1667,212.5 66.5,214.5C 66.5,215.167 66.5,215.833 66.5,216.5C 65.5041,216.586 64.6708,216.252 64,215.5C 63.6905,214.234 63.1905,213.067 62.5,212C 59.0156,211.734 58.0156,210.234 59.5,207.5 Z"/></g>
<g><path style="opacity:1" fill="#77752c" d="M 73.5,205.5 C 73.8058,209.8 75.4725,213.466 78.5,216.5C 77.3285,217.345 75.9952,218.011 74.5,218.5C 74.8799,216.302 74.2132,214.635 72.5,213.5C 72.1936,210.615 72.5269,207.948 73.5,205.5 Z"/></g>
<g><path style="opacity:1" fill="#cdc93d" d="M 84.5,252.5 C 86.3662,248.614 88.6995,244.947 91.5,241.5C 91.8333,242.5 92.5,243.167 93.5,243.5C 94.1667,244.833 95.1667,245.833 96.5,246.5C 99.2107,248.713 100.877,251.546 101.5,255C 98.0614,257.527 95.0614,260.527 92.5,264C 88.8333,266.167 85.1667,268.333 81.5,270.5C 82.8333,272.167 84.1667,273.833 85.5,275.5C 83.8333,276.833 82.1667,278.167 80.5,279.5C 89.7887,284.744 93.7887,292.744 92.5,303.5C 93.3333,302.5 94.1667,301.5 95,300.5C 96.1764,302.196 97.343,303.862 98.5,305.5C 91.891,306.423 85.2244,306.756 78.5,306.5C 69.1456,306.39 59.8123,306.723 50.5,307.5C 50.5,306.5 50.5,305.5 50.5,304.5C 51.8818,298.765 52.5485,292.932 52.5,287C 51.0021,278.395 51.3354,269.895 53.5,261.5C 54.9238,259.485 55.5905,257.152 55.5,254.5C 56.5183,249.274 57.8516,244.107 59.5,239C 58.0944,237.022 57.0944,234.855 56.5,232.5C 56.5,226.167 56.5,219.833 56.5,213.5C 57.675,213.281 58.675,213.614 59.5,214.5C 60.4432,217.4 62.1099,219.733 64.5,221.5C 65.3142,223.766 65.8142,226.1 66,228.5C 67.828,230.081 69.828,231.415 72,232.5C 75.1442,241.047 73.8109,248.714 68,255.5C 67.5034,257.81 67.3367,260.143 67.5,262.5C 70.2706,262.579 72.9373,262.079 75.5,261C 77.17,258.441 79.5034,256.775 82.5,256C 83.305,254.887 83.9717,253.721 84.5,252.5 Z"/></g>
<g><path style="opacity:1" fill="#98952f" d="M 66.5,216.5 C 66.5,215.833 66.5,215.167 66.5,214.5C 67.404,215.209 67.7373,216.209 67.5,217.5C 70.4,217.592 72.0667,216.259 72.5,213.5C 74.2132,214.635 74.8799,216.302 74.5,218.5C 71.7394,219.593 70.0728,221.593 69.5,224.5C 67.1861,225.179 66.8528,226.512 68.5,228.5C 70.1083,229.318 71.7749,229.985 73.5,230.5C 74.7517,236.099 75.4184,241.766 75.5,247.5C 75.573,249.027 74.9063,250.027 73.5,250.5C 70.9337,253.395 69.2671,256.728 68.5,260.5C 70.5273,260.662 72.5273,260.495 74.5,260C 75.2524,259.329 75.5858,258.496 75.5,257.5C 78.0872,255.041 81.0872,253.374 84.5,252.5C 83.9717,253.721 83.305,254.887 82.5,256C 79.5034,256.775 77.17,258.441 75.5,261C 72.9373,262.079 70.2706,262.579 67.5,262.5C 67.3367,260.143 67.5034,257.81 68,255.5C 73.8109,248.714 75.1442,241.047 72,232.5C 69.828,231.415 67.828,230.081 66,228.5C 65.8142,226.1 65.3142,223.766 64.5,221.5C 62.1099,219.733 60.4432,217.4 59.5,214.5C 58.675,213.614 57.675,213.281 56.5,213.5C 56.5,219.833 56.5,226.167 56.5,232.5C 55.8333,232.5 55.5,232.167 55.5,231.5C 55.5,225.167 55.5,218.833 55.5,212.5C 57.5914,212.318 59.5914,212.652 61.5,213.5C 62.2191,215.517 63.3857,217.183 65,218.5C 66.0299,218.164 66.5299,217.497 66.5,216.5 Z"/></g>
<g><path style="opacity:1" fill="#e3e6e5" d="M 131.5,176.5 C 131.079,178.91 129.746,180.743 127.5,182C 129.325,186.835 130.991,191.668 132.5,196.5C 132.735,197.097 133.235,197.43 134,197.5C 135.495,195.837 137.328,194.837 139.5,194.5C 141.83,196.542 142.996,199.208 143,202.5C 144,203.5 145,204.5 146,205.5C 144.821,201.4 144.321,197.066 144.5,192.5C 144.5,189.833 144.5,187.167 144.5,184.5C 144.328,183.508 144.662,182.842 145.5,182.5C 147.534,183.591 148.868,185.257 149.5,187.5C 150.079,190.706 151.079,193.706 152.5,196.5C 154.214,203.783 155.381,211.116 156,218.5C 152.201,226.296 148.701,226.296 145.5,218.5C 143.447,220.729 143.114,223.062 144.5,225.5C 144.5,228.167 144.5,230.833 144.5,233.5C 143.167,233.5 141.833,233.5 140.5,233.5C 139.791,229.444 137.791,226.11 134.5,223.5C 133.548,225.045 133.215,226.712 133.5,228.5C 132.755,231.541 131.422,234.207 129.5,236.5C 128.778,236.082 128.278,235.416 128,234.5C 126.872,236.345 126.372,238.345 126.5,240.5C 125.5,240.5 124.5,240.5 123.5,240.5C 123.585,239.005 122.919,238.005 121.5,237.5C 117.69,240.338 114.19,240.005 111,236.5C 109.955,237.373 109.122,238.373 108.5,239.5C 107.29,239.932 106.29,240.599 105.5,241.5C 101.05,241.858 97.5497,240.192 95,236.5C 94.3028,238.584 93.1361,240.251 91.5,241.5C 88.6995,244.947 86.3662,248.614 84.5,252.5C 81.0872,253.374 78.0872,255.041 75.5,257.5C 74.5,257.5 73.5,257.5 72.5,257.5C 72.6287,255.784 72.962,254.117 73.5,252.5C 75.7957,250.599 77.629,248.266 79,245.5C 79.6396,238.617 78.8062,231.95 76.5,225.5C 74.2143,226.42 71.8809,226.42 69.5,225.5C 69.5,225.167 69.5,224.833 69.5,224.5C 70.0728,221.593 71.7394,219.593 74.5,218.5C 75.9952,218.011 77.3285,217.345 78.5,216.5C 79.4734,216.013 80.4734,215.513 81.5,215C 79.388,211.222 76.888,207.722 74,204.5C 73.6012,204.728 73.4346,205.062 73.5,205.5C 72.5269,207.948 72.1936,210.615 72.5,213.5C 72.0667,216.259 70.4,217.592 67.5,217.5C 67.7373,216.209 67.404,215.209 66.5,214.5C 66.1667,212.5 65.8333,210.5 65.5,208.5C 63.2646,208.795 61.2646,208.461 59.5,207.5C 59.5,206.833 59.5,206.167 59.5,205.5C 60.7095,205.068 61.7095,204.401 62.5,203.5C 63.1174,203.389 63.6174,203.056 64,202.5C 64.2352,195.119 64.7352,187.786 65.5,180.5C 65.5,179.167 65.5,177.833 65.5,176.5C 65.5,176.167 65.5,175.833 65.5,175.5C 69.0819,173.583 71.4152,174.583 72.5,178.5C 76.8576,174.822 81.8576,172.488 87.5,171.5C 91.7257,168.925 95.8923,166.258 100,163.5C 101.011,164.056 101.844,164.722 102.5,165.5C 104.033,167.245 106.033,168.245 108.5,168.5C 108.783,169.289 109.283,169.956 110,170.5C 111.199,167.274 111.699,163.941 111.5,160.5C 112.404,159.791 112.737,158.791 112.5,157.5C 113.585,155.418 115.085,155.084 117,156.5C 120.309,162.251 123.142,168.251 125.5,174.5C 127.411,175.477 129.411,176.143 131.5,176.5 Z"/></g>
<g><path style="opacity:1" fill="#113f59" d="M 127.5,212.5 C 128.708,213.234 130.041,213.567 131.5,213.5C 131.215,215.288 131.548,216.955 132.5,218.5C 134.642,217.563 134.976,216.23 133.5,214.5C 135.086,215.413 136.586,215.413 138,214.5C 139.092,216.931 140.259,216.931 141.5,214.5C 141.561,219.878 141.728,225.212 142,230.5C 140.226,226.232 137.393,223.232 133.5,221.5C 131.5,220.833 129.5,220.167 127.5,219.5C 126.5,219.833 125.833,220.5 125.5,221.5C 123.517,221.843 122.183,221.176 121.5,219.5C 123.315,218.37 125.315,217.704 127.5,217.5C 127.5,215.833 127.5,214.167 127.5,212.5 Z"/></g>
<g><path style="opacity:1" fill="#e1e4e3" d="M 107.5,220.5 C 107.5,224.167 107.5,227.833 107.5,231.5C 106.143,232.685 104.643,233.685 103,234.5C 101.739,234.241 100.739,233.574 100,232.5C 99.5386,227.816 99.7053,223.149 100.5,218.5C 102.467,218.739 104.301,218.406 106,217.5C 106.232,218.737 106.732,219.737 107.5,220.5 Z"/></g>
<g><path style="opacity:1" fill="#12535f" d="M 108.5,218.5 C 107.662,218.842 107.328,219.508 107.5,220.5C 106.732,219.737 106.232,218.737 106,217.5C 104.301,218.406 102.467,218.739 100.5,218.5C 99.7053,223.149 99.5386,227.816 100,232.5C 100.739,233.574 101.739,234.241 103,234.5C 104.643,233.685 106.143,232.685 107.5,231.5C 108.209,232.404 109.209,232.737 110.5,232.5C 108.74,238.025 105.073,239.858 99.5,238C 97.3834,236.269 95.8834,234.102 95,231.5C 90.7889,239.708 85.1223,246.708 78,252.5C 78.7853,249.435 80.2853,246.602 82.5,244C 81.2396,237.899 80.4063,231.732 80,225.5C 78.0162,223.387 75.5162,222.22 72.5,222C 80.1158,216.147 86.9491,216.647 93,223.5C 96.363,212.297 101.53,210.63 108.5,218.5 Z"/></g>
<g><path style="opacity:1" fill="#c3c9cf" d="M 133.5,214.5 C 134.976,216.23 134.642,217.563 132.5,218.5C 131.548,216.955 131.215,215.288 131.5,213.5C 132.062,211.335 132.729,211.668 133.5,214.5 Z"/></g>
<g><path style="opacity:1" fill="#323117" d="M 78.5,216.5 C 75.4725,213.466 73.8058,209.8 73.5,205.5C 73.4346,205.062 73.6012,204.728 74,204.5C 76.888,207.722 79.388,211.222 81.5,215C 80.4734,215.513 79.4734,216.013 78.5,216.5 Z"/></g>
<g><path style="opacity:1" fill="#262516" d="M 118.5,212.5 C 123.864,215.879 123.198,217.879 116.5,218.5C 116.253,216.142 116.919,214.142 118.5,212.5 Z"/></g>
<g><path style="opacity:1" fill="#b7b440" d="M 90.5,207.5 C 91.1667,207.5 91.8333,207.5 92.5,207.5C 93.2186,209.764 93.552,212.097 93.5,214.5C 91.0274,214.088 89.6941,215.088 89.5,217.5C 88.5,217.5 87.5,217.5 86.5,217.5C 86.7038,214.482 87.0371,211.482 87.5,208.5C 89.1959,210.129 90.1959,209.796 90.5,207.5 Z"/></g>
<g><path style="opacity:1" fill="#0d4258" d="M 116.5,231.5 C 115.395,232.6 114.062,233.267 112.5,233.5C 111.778,233.082 111.278,232.416 111,231.5C 110.601,231.728 110.435,232.062 110.5,232.5C 109.209,232.737 108.209,232.404 107.5,231.5C 107.5,227.833 107.5,224.167 107.5,220.5C 107.328,219.508 107.662,218.842 108.5,218.5C 109.722,214.436 112.055,210.27 115.5,206C 117.899,205.289 120.232,205.456 122.5,206.5C 124.03,211.146 122.863,212.146 119,209.5C 117.233,210.34 115.899,211.673 115,213.5C 114.593,216.682 114.093,219.849 113.5,223C 114.367,225.896 115.367,228.729 116.5,231.5 Z"/></g>
<g><path style="opacity:1" fill="#767126" d="M 105.5,201.5 C 105.67,202.822 105.337,203.989 104.5,205C 102.167,205.333 99.8333,205.667 97.5,206C 99.2395,207.517 100.906,209.017 102.5,210.5C 101.127,210.343 99.7932,210.51 98.5,211C 96.1667,213.333 93.8333,215.667 91.5,218C 90.5632,218.692 89.8966,218.525 89.5,217.5C 89.6941,215.088 91.0274,214.088 93.5,214.5C 93.552,212.097 93.2186,209.764 92.5,207.5C 95.9055,204.762 99.5721,202.429 103.5,200.5C 104.183,200.863 104.85,201.196 105.5,201.5 Z"/></g>
<g><path style="opacity:1" fill="#b1ae37" d="M 105.5,201.5 C 105.833,201.5 106.167,201.5 106.5,201.5C 106.5,205.167 106.5,208.833 106.5,212.5C 105.167,211.833 103.833,211.167 102.5,210.5C 100.906,209.017 99.2395,207.517 97.5,206C 99.8333,205.667 102.167,205.333 104.5,205C 105.337,203.989 105.67,202.822 105.5,201.5 Z"/></g>
<g><path style="opacity:1" fill="#0d4158" d="M 135.5,208.5 C 132.833,208.5 130.167,208.5 127.5,208.5C 127.5,209.5 127.5,210.5 127.5,211.5C 126.685,206.714 127.518,202.047 130,197.5C 132.312,200.943 134.146,204.609 135.5,208.5 Z"/></g>
<g><path style="opacity:1" fill="#706e3f" d="M 90.5,199.5 C 86.8346,200.293 86.8346,201.626 90.5,203.5C 89.3143,204.961 89.3143,206.295 90.5,207.5C 90.1959,209.796 89.1959,210.129 87.5,208.5C 86.9492,205.193 86.6159,201.86 86.5,198.5C 88.099,198.232 89.4324,198.566 90.5,199.5 Z"/></g>
<g><path style="opacity:1" fill="#0b2b4d" d="M 141.5,214.5 C 140.259,216.931 139.092,216.931 138,214.5C 136.586,215.413 135.086,215.413 133.5,214.5C 132.729,211.668 132.062,211.335 131.5,213.5C 130.041,213.567 128.708,213.234 127.5,212.5C 127.5,212.167 127.5,211.833 127.5,211.5C 127.5,210.5 127.5,209.5 127.5,208.5C 130.167,208.5 132.833,208.5 135.5,208.5C 135.312,210.103 135.812,211.437 137,212.5C 137.434,209.821 137.268,207.154 136.5,204.5C 136.692,202.423 137.192,200.423 138,198.5C 140.922,203.097 144.256,207.43 148,211.5C 147.667,204.167 147.333,196.833 147,189.5C 151.029,199.081 153.029,209.081 153,219.5C 150.626,222.288 149.293,221.954 149,218.5C 146.833,217 145,215.167 143.5,213C 142.184,212.472 141.517,212.972 141.5,214.5 Z"/></g>
<g><path style="opacity:1" fill="#656023" d="M 119.5,190.5 C 122.037,194.4 123.037,198.734 122.5,203.5C 114.446,202.703 109.612,206.369 108,214.5C 107.283,213.956 106.783,213.289 106.5,212.5C 106.5,208.833 106.5,205.167 106.5,201.5C 108.179,201.715 109.179,201.048 109.5,199.5C 111.79,202.292 113.457,201.959 114.5,198.5C 115.5,198.5 116.5,198.5 117.5,198.5C 117.565,195.572 118.232,192.905 119.5,190.5 Z"/></g>
<g><path style="opacity:1" fill="#2a2911" d="M 90.5,199.5 C 91.552,199.351 92.552,199.517 93.5,200C 92.2899,201.039 91.2899,202.206 90.5,203.5C 86.8346,201.626 86.8346,200.293 90.5,199.5 Z"/></g>
<g><path style="opacity:1" fill="#36331b" d="M 122.5,203.5 C 123.037,198.734 122.037,194.4 119.5,190.5C 119.215,188.712 119.548,187.045 120.5,185.5C 126.629,191.028 128.129,197.695 125,205.5C 124.005,204.934 123.172,204.267 122.5,203.5 Z"/></g>
<g><path style="opacity:1" fill="#403e17" d="M 114.5,198.5 C 113.457,201.959 111.79,202.292 109.5,199.5C 105.201,194.737 106.201,191.404 112.5,189.5C 113.01,192.539 113.677,195.539 114.5,198.5 Z"/></g>
<g><path style="opacity:1" fill="#312e16" d="M 144.5,192.5 C 144.321,197.066 144.821,201.4 146,205.5C 145,204.5 144,203.5 143,202.5C 142.996,199.208 141.83,196.542 139.5,194.5C 139.337,192.143 139.503,189.81 140,187.5C 141.011,186.663 142.178,186.33 143.5,186.5C 143.205,188.735 143.539,190.735 144.5,192.5 Z"/></g>
<g><path style="opacity:1" fill="#0a3352" d="M 72.5,181.5 C 73.0233,184.89 73.8566,188.223 75,191.5C 75.8861,194.093 77.3861,196.093 79.5,197.5C 79.5,198.167 79.5,198.833 79.5,199.5C 78.9569,199.56 78.6236,199.893 78.5,200.5C 81.283,207.023 81.9497,206.689 80.5,199.5C 81.5676,198.566 82.901,198.232 84.5,198.5C 85.1799,203.213 85.1799,207.88 84.5,212.5C 83.5726,210.887 82.7393,209.221 82,207.5C 81.3086,209.891 80.3086,209.891 79,207.5C 77.4412,205.783 76.6079,203.783 76.5,201.5C 74.5165,201.383 72.8498,202.05 71.5,203.5C 70.8038,206.556 69.9704,209.556 69,212.5C 68.3167,209.576 66.8167,207.242 64.5,205.5C 65.1449,204.354 65.9783,203.354 67,202.5C 67.5326,197.653 67.366,192.82 66.5,188C 66.4845,184.559 67.3179,181.393 69,178.5C 70.0391,179.71 71.2058,180.71 72.5,181.5 Z"/></g>
<g><path style="opacity:1" fill="#b7bcc4" d="M 79.5,199.5 C 79.8333,199.5 80.1667,199.5 80.5,199.5C 81.9497,206.689 81.283,207.023 78.5,200.5C 78.6236,199.893 78.9569,199.56 79.5,199.5 Z"/></g>
<g><path style="opacity:1" fill="#bec3ca" d="M 71.5,192.5 C 72.4343,193.772 73.101,195.272 73.5,197C 73.3865,198.28 72.7199,199.113 71.5,199.5C 70.4249,197.189 70.4249,194.856 71.5,192.5 Z"/></g>
<g><path style="opacity:1" fill="#6f6928" d="M 139.5,182.5 C 141.028,183.309 142.694,183.976 144.5,184.5C 144.5,187.167 144.5,189.833 144.5,192.5C 143.539,190.735 143.205,188.735 143.5,186.5C 142.178,186.33 141.011,186.663 140,187.5C 139.503,189.81 139.337,192.143 139.5,194.5C 137.328,194.837 135.495,195.837 134,197.5C 133.235,197.43 132.735,197.097 132.5,196.5C 133.183,194.824 134.517,194.157 136.5,194.5C 135.886,189.968 136.886,185.968 139.5,182.5 Z"/></g>
<g><path style="opacity:1" fill="#d6dcdd" d="M 79.5,197.5 C 77.3861,196.093 75.8861,194.093 75,191.5C 73.8566,188.223 73.0233,184.89 72.5,181.5C 77.3841,180.759 82.0507,179.425 86.5,177.5C 88.9215,177.257 90.5882,178.257 91.5,180.5C 89.8232,183.853 87.6566,186.853 85,189.5C 84.587,186.768 83.9203,184.101 83,181.5C 82.3333,180.167 81.6667,180.167 81,181.5C 80.3068,185.172 79.1401,188.672 77.5,192C 78.1007,193.605 79.1007,194.938 80.5,196C 79.944,196.383 79.6107,196.883 79.5,197.5 Z"/></g>
<g><path style="opacity:1" fill="#69685a" d="M 75.5,183.5 C 76.6491,183.791 77.3158,184.624 77.5,186C 77.3333,186.833 77.1667,187.667 77,188.5C 75.7308,187.095 75.2308,185.429 75.5,183.5 Z"/></g>
<g><path style="opacity:1" fill="#144e5e" d="M 113.5,179.5 C 114.833,178.833 116.167,178.167 117.5,177.5C 117.402,180.248 118.402,180.914 120.5,179.5C 122.5,179.5 123.5,178.5 123.5,176.5C 125.987,177.779 126.654,179.612 125.5,182C 127.514,185.224 128.348,188.724 128,192.5C 122.576,180.211 118.576,180.545 116,193.5C 115.163,191.649 114.329,189.816 113.5,188C 111.741,187.202 110.074,187.369 108.5,188.5C 106.15,190.687 104.15,193.187 102.5,196C 103.308,196.308 103.975,196.808 104.5,197.5C 100.975,198.512 97.8083,200.179 95,202.5C 94.6666,200.953 95.1666,199.62 96.5,198.5C 93.5755,197.512 90.5755,196.846 87.5,196.5C 85.9704,196.64 84.9704,197.307 84.5,198.5C 82.901,198.232 81.5676,198.566 80.5,199.5C 80.1667,199.5 79.8333,199.5 79.5,199.5C 79.5,198.833 79.5,198.167 79.5,197.5C 79.6107,196.883 79.944,196.383 80.5,196C 79.1007,194.938 78.1007,193.605 77.5,192C 79.1401,188.672 80.3068,185.172 81,181.5C 81.6667,180.167 82.3333,180.167 83,181.5C 83.9203,184.101 84.587,186.768 85,189.5C 87.6566,186.853 89.8232,183.853 91.5,180.5C 90.5882,178.257 88.9215,177.257 86.5,177.5C 82.0507,179.425 77.3841,180.759 72.5,181.5C 75.5978,179.108 78.9311,176.942 82.5,175C 85.8333,174.333 89.1667,174.333 92.5,175C 94.4782,177.497 94.9782,180.331 94,183.5C 93.1511,186.561 91.6511,189.228 89.5,191.5C 92.4222,192.798 95.4222,193.798 98.5,194.5C 98.2652,188.151 97.7652,181.817 97,175.5C 95.0162,173.387 92.5162,172.22 89.5,172C 93.2035,170.1 97.0368,168.6 101,167.5C 104.824,169.083 108.157,171.416 111,174.5C 111.502,178.241 111.502,181.908 111,185.5C 113.039,184.022 113.872,182.022 113.5,179.5 Z"/></g>
<g><path style="opacity:1" fill="#545343" d="M 94.5,186.5 C 96.256,187.552 96.9227,189.219 96.5,191.5C 95.1266,191.657 93.7932,191.49 92.5,191C 94.0368,189.89 94.7035,188.39 94.5,186.5 Z"/></g>
<g><path style="opacity:1" fill="#343421" d="M 85.5,179.5 C 88.8606,180.203 89.1939,181.537 86.5,183.5C 85.5713,182.311 85.238,180.978 85.5,179.5 Z"/></g>
<g><path style="opacity:1" fill="#c3cdd1" d="M 120.5,179.5 C 118.402,180.914 117.402,180.248 117.5,177.5C 117.343,176.127 117.51,174.793 118,173.5C 119.122,175.407 119.955,177.407 120.5,179.5 Z"/></g>
<g><path style="opacity:1" fill="#dce0e1" d="M 102.5,174.5 C 104.997,175.081 106.664,176.581 107.5,179C 106.69,182.942 105.023,186.442 102.5,189.5C 102.369,184.681 102.369,179.681 102.5,174.5 Z"/></g>
<g><path style="opacity:1" fill="#0d485b" d="M 123.5,176.5 C 123.5,178.5 122.5,179.5 120.5,179.5C 119.955,177.407 119.122,175.407 118,173.5C 117.51,174.793 117.343,176.127 117.5,177.5C 116.167,178.167 114.833,178.833 113.5,179.5C 112.519,154.736 115.852,153.736 123.5,176.5 Z"/></g>
<g><path style="opacity:1" fill="#302f18" d="M 102.5,220.5 C 103.5,220.5 104.5,220.5 105.5,220.5C 105.665,223.85 105.498,227.183 105,230.5C 104.586,230.957 104.086,231.291 103.5,231.5C 101.274,228.035 100.94,224.369 102.5,220.5 Z"/></g>
<g><path style="opacity:1" fill="#dce1e1" d="M 85.5,224.5 C 87.9974,225.081 89.6641,226.581 90.5,229C 89.6898,232.942 88.0232,236.442 85.5,239.5C 85.3695,234.681 85.3695,229.681 85.5,224.5 Z"/></g>
<g><path style="opacity:1" fill="#13515f" d="M 121.5,219.5 C 122.183,221.176 123.517,221.843 125.5,221.5C 125.369,222.239 125.536,222.906 126,223.5C 126.791,222.255 127.291,220.922 127.5,219.5C 129.5,220.167 131.5,220.833 133.5,221.5C 131.809,224.536 130.642,227.869 130,231.5C 126.476,223.23 125.309,223.563 126.5,232.5C 126,233.5 125.5,234.5 125,235.5C 124,234.167 123,232.833 122,231.5C 120.923,236.115 118.09,237.615 113.5,236C 112.748,235.329 112.414,234.496 112.5,233.5C 114.062,233.267 115.395,232.6 116.5,231.5C 116.783,232.289 117.283,232.956 118,233.5C 119.953,230.745 121.12,227.745 121.5,224.5C 119.833,224.5 118.167,224.5 116.5,224.5C 116.57,221.341 118.237,219.674 121.5,219.5 Z"/></g>
<g><path style="opacity:1" fill="#b3bec4" d="M 127.5,219.5 C 127.291,220.922 126.791,222.255 126,223.5C 125.536,222.906 125.369,222.239 125.5,221.5C 125.833,220.5 126.5,219.833 127.5,219.5 Z"/></g>
<g><path style="opacity:1" fill="#333012" d="M 140.5,233.5 C 140.38,234.586 139.713,235.253 138.5,235.5C 135.255,234.26 133.588,231.927 133.5,228.5C 133.215,226.712 133.548,225.045 134.5,223.5C 137.791,226.11 139.791,229.444 140.5,233.5 Z"/></g>
<g><path style="opacity:1" fill="#393817" d="M 69.5,225.5 C 71.8809,226.42 74.2143,226.42 76.5,225.5C 78.8062,231.95 79.6396,238.617 79,245.5C 77.629,248.266 75.7957,250.599 73.5,252.5C 73.5,251.833 73.5,251.167 73.5,250.5C 74.9063,250.027 75.573,249.027 75.5,247.5C 76.1582,246.207 76.4915,244.707 76.5,243C 76,238.5 75.5,234 75,229.5C 72.8687,228.385 71.0354,227.052 69.5,225.5 Z"/></g>
<g><path style="opacity:1" fill="#7b7421" d="M 144.5,225.5 C 145.5,225.5 146.5,225.5 147.5,225.5C 147.085,231.348 145.751,237.015 143.5,242.5C 137.305,244.595 131.305,247.261 125.5,250.5C 124.296,255.964 123.296,261.464 122.5,267C 122.833,267.5 123.167,268 123.5,268.5C 130.167,264.833 136.833,261.167 143.5,257.5C 143.833,257.833 144.167,258.167 144.5,258.5C 139.949,267.278 138.116,276.611 139,286.5C 141.35,288.683 143.517,291.016 145.5,293.5C 143.659,294.23 141.825,294.897 140,295.5C 138.04,298.585 136.207,301.752 134.5,305C 122.496,308.125 110.496,308.291 98.5,305.5C 97.343,303.862 96.1764,302.196 95,300.5C 94.1667,301.5 93.3333,302.5 92.5,303.5C 93.7887,292.744 89.7887,284.744 80.5,279.5C 82.1667,278.167 83.8333,276.833 85.5,275.5C 84.1667,273.833 82.8333,272.167 81.5,270.5C 85.1667,268.333 88.8333,266.167 92.5,264C 95.0614,260.527 98.0614,257.527 101.5,255C 100.877,251.546 99.2107,248.713 96.5,246.5C 100.529,246.851 104.362,246.185 108,244.5C 113.137,245.59 118.304,246.09 123.5,246C 125.47,243.684 127.804,241.851 130.5,240.5C 131.789,238.781 131.455,237.447 129.5,236.5C 131.422,234.207 132.755,231.541 133.5,228.5C 133.588,231.927 135.255,234.26 138.5,235.5C 139.713,235.253 140.38,234.586 140.5,233.5C 141.833,233.5 143.167,233.5 144.5,233.5C 144.5,230.833 144.5,228.167 144.5,225.5 Z"/></g>
<g><path style="opacity:1" fill="#28260f" d="M 123.5,240.5 C 118.305,240.821 113.305,240.487 108.5,239.5C 109.122,238.373 109.955,237.373 111,236.5C 114.19,240.005 117.69,240.338 121.5,237.5C 122.919,238.005 123.585,239.005 123.5,240.5 Z"/></g>
<g><path style="opacity:1" fill="#3a3712" d="M 105.5,241.5 C 102.013,244.526 98.0131,245.193 93.5,243.5C 92.5,243.167 91.8333,242.5 91.5,241.5C 93.1361,240.251 94.3028,238.584 95,236.5C 97.5497,240.192 101.05,241.858 105.5,241.5 Z"/></g>
<g><path style="opacity:1" fill="#69631d" d="M 129.5,236.5 C 131.455,237.447 131.789,238.781 130.5,240.5C 127.804,241.851 125.47,243.684 123.5,246C 118.304,246.09 113.137,245.59 108,244.5C 104.362,246.185 100.529,246.851 96.5,246.5C 95.1667,245.833 94.1667,244.833 93.5,243.5C 98.0131,245.193 102.013,244.526 105.5,241.5C 106.29,240.599 107.29,239.932 108.5,239.5C 113.305,240.487 118.305,240.821 123.5,240.5C 124.5,240.5 125.5,240.5 126.5,240.5C 126.372,238.345 126.872,236.345 128,234.5C 128.278,235.416 128.778,236.082 129.5,236.5 Z"/></g>
<g><path style="opacity:1" fill="#5b591b" d="M 69.5,224.5 C 69.5,224.833 69.5,225.167 69.5,225.5C 71.0354,227.052 72.8687,228.385 75,229.5C 75.5,234 76,238.5 76.5,243C 76.4915,244.707 76.1582,246.207 75.5,247.5C 75.4184,241.766 74.7517,236.099 73.5,230.5C 71.7749,229.985 70.1083,229.318 68.5,228.5C 66.8528,226.512 67.1861,225.179 69.5,224.5 Z"/></g>
<g><path style="opacity:1" fill="#7a772b" d="M 73.5,250.5 C 73.5,251.167 73.5,251.833 73.5,252.5C 72.962,254.117 72.6287,255.784 72.5,257.5C 73.5,257.5 74.5,257.5 75.5,257.5C 75.5858,258.496 75.2524,259.329 74.5,260C 72.5273,260.495 70.5273,260.662 68.5,260.5C 69.2671,256.728 70.9337,253.395 73.5,250.5 Z"/></g>
<g><path style="opacity:1" fill="#7e7e33" d="M 54.5,254.5 C 54.8333,254.5 55.1667,254.5 55.5,254.5C 55.5905,257.152 54.9238,259.485 53.5,261.5C 53.6741,259.139 54.0074,256.806 54.5,254.5 Z"/></g>
<g><path style="opacity:1" fill="#a7a538" d="M 50.5,304.5 C 50.5,305.5 50.5,306.5 50.5,307.5C 59.8123,306.723 69.1456,306.39 78.5,306.5C 69.0084,307.511 59.3417,308.177 49.5,308.5C 49.2322,306.901 49.5655,305.568 50.5,304.5 Z"/></g>
</svg>
