<?xml version="1.0" encoding="UTF-8"?>
<!DOCTYPE svg PUBLIC "-//W3C//DTD SVG 1.1//EN" "http://www.w3.org/Graphics/SVG/1.1/DTD/svg11.dtd">
<svg xmlns="http://www.w3.org/2000/svg" version="1.1" width="217px" height="566px" style="shape-rendering:geometricPrecision; text-rendering:geometricPrecision; image-rendering:optimizeQuality; fill-rule:evenodd; clip-rule:evenodd" xmlns:xlink="http://www.w3.org/1999/xlink">
<g><path style="opacity:0.999" fill="#ceca3e" d="M 93.5,-0.5 C 99.8333,-0.5 106.167,-0.5 112.5,-0.5C 115.741,1.12073 119.075,2.78739 122.5,4.5C 123.386,5.32496 123.719,6.32496 123.5,7.5C 123.335,10.8499 123.502,14.1832 124,17.5C 126.087,16.6028 128.254,15.9361 130.5,15.5C 129.734,22.5551 128.567,29.5551 127,36.5C 121.756,47.9866 116.256,59.3199 110.5,70.5C 112.933,74.1042 116.099,76.7708 120,78.5C 120.471,80.2464 121.138,81.913 122,83.5C 122.561,82.9781 123.228,82.6448 124,82.5C 129.438,83.8785 134.938,84.8785 140.5,85.5C 143.705,89.3738 147.705,92.0405 152.5,93.5C 159.89,98.7238 165.223,105.557 168.5,114C 165.949,120.368 163.783,126.868 162,133.5C 159.036,137.466 155.703,141.133 152,144.5C 152.253,134.179 150.586,124.179 147,114.5C 145.892,121.115 145.225,127.782 145,134.5C 142.041,131.902 140.707,128.568 141,124.5C 138.812,126.688 136.645,128.855 134.5,131C 134.96,132.301 135.294,133.634 135.5,135C 135.316,136.376 134.649,137.209 133.5,137.5C 132.082,135.692 130.082,135.025 127.5,135.5C 125.574,128.974 123.074,122.641 120,116.5C 117.254,115.426 115.421,116.426 114.5,119.5C 111.163,120.484 109.663,122.817 110,126.5C 108.227,120.287 105.894,114.287 103,108.5C 103.443,113.786 103.943,119.119 104.5,124.5C 98.0397,127.556 91.373,130.39 84.5,133C 82.2462,134.377 80.0795,135.877 78,137.5C 76.4886,131.931 73.9886,131.265 70.5,135.5C 68.0885,135.137 66.5885,136.137 66,138.5C 64.9192,145.791 64.2525,153.124 64,160.5C 57.558,164.983 58.058,168.65 65.5,171.5C 66.4978,174.164 67.9978,176.497 70,178.5C 70.3333,180.833 70.6667,183.167 71,185.5C 72.1096,187.037 73.6096,187.703 75.5,187.5C 76.7095,187.932 77.7095,188.599 78.5,189.5C 78.666,194.844 78.4994,200.177 78,205.5C 74.3724,208.295 72.8724,211.962 73.5,216.5C 79.3922,215.934 84.0588,213.267 87.5,208.5C 89.2737,207.63 90.607,206.297 91.5,204.5C 96.0613,206.893 99.3946,210.393 101.5,215C 98.5419,218.632 95.5419,222.299 92.5,226C 88.2505,228.374 84.0838,230.874 80,233.5C 79.3333,234.167 79.3333,234.833 80,235.5C 84.6962,239.002 84.1962,241.836 78.5,244C 88.4391,249.937 92.7724,258.771 91.5,270.5C 92.5,269.833 93.5,269.167 94.5,268.5C 96.0712,269.975 97.4045,271.642 98.5,273.5C 80.2005,274.831 61.8672,275.831 43.5,276.5C 44.7503,269.329 46.0837,262.163 47.5,255C 46.7734,248.674 46.1067,242.34 45.5,236C 46.5657,230.172 47.5657,224.339 48.5,218.5C 50.7887,212.033 52.7887,205.366 54.5,198.5C 53.1534,195.807 51.8201,193.14 50.5,190.5C 50.9236,179.079 50.2569,167.746 48.5,156.5C 50.2292,157.117 51.7292,158.117 53,159.5C 52.4731,148.675 51.6397,137.841 50.5,127C 50.881,122.855 51.881,118.855 53.5,115C 50.2979,110.769 47.4646,106.269 45,101.5C 44.7607,99.0405 45.2607,96.7072 46.5,94.5C 48.8003,92.016 51.4669,90.016 54.5,88.5C 66.7363,85.9607 79.0696,83.9607 91.5,82.5C 90.1397,69.6792 88.8064,56.8458 87.5,44C 89.1736,29.8123 93.1736,16.3123 99.5,3.5C 97.1363,3.56399 94.803,3.23066 92.5,2.5C 92.5569,1.39105 92.8902,0.391047 93.5,-0.5 Z"/></g>
<g><path style="opacity:0.987" fill="#d9e2e7" d="M 92.5,2.5 C 94.803,3.23066 97.1363,3.56399 99.5,3.5C 93.1736,16.3123 89.1736,29.8123 87.5,44C 88.8064,56.8458 90.1397,69.6792 91.5,82.5C 79.0696,83.9607 66.7363,85.9607 54.5,88.5C 56.4019,86.8814 57.7353,84.8814 58.5,82.5C 62.0793,62.8496 66.9126,43.5163 73,24.5C 76.0812,18.6688 79.4145,13.0021 83,7.5C 85.8255,5.17072 88.9922,3.50405 92.5,2.5 Z"/></g>
<g><path style="opacity:0.924" fill="#7c7521" d="M 123.5,7.5 C 126.485,8.32567 129.151,9.659 131.5,11.5C 130.766,12.7079 130.433,14.0413 130.5,15.5C 128.254,15.9361 126.087,16.6028 124,17.5C 123.502,14.1832 123.335,10.8499 123.5,7.5 Z"/></g>
<g><path style="opacity:0.728" fill="#c9c53b" d="M 131.5,11.5 C 132.931,12.7804 133.598,14.4471 133.5,16.5C 132.391,16.4431 131.391,16.1098 130.5,15.5C 130.433,14.0413 130.766,12.7079 131.5,11.5 Z"/></g>
<g><path style="opacity:0.99" fill="#7c7521" d="M 130.5,15.5 C 131.391,16.1098 132.391,16.4431 133.5,16.5C 135.173,17.343 136.34,18.6763 137,20.5C 140.16,37.7932 142.993,55.1265 145.5,72.5C 143.637,76.755 141.97,81.0883 140.5,85.5C 134.938,84.8785 129.438,83.8785 124,82.5C 123.228,82.6448 122.561,82.9781 122,83.5C 121.138,81.913 120.471,80.2464 120,78.5C 116.099,76.7708 112.933,74.1042 110.5,70.5C 116.256,59.3199 121.756,47.9866 127,36.5C 128.567,29.5551 129.734,22.5551 130.5,15.5 Z"/></g>
<g><path style="opacity:0.965" fill="#191e23" d="M 145.5,72.5 C 147.397,75.2856 149.063,78.2856 150.5,81.5C 154.411,83.9434 158.078,86.6101 161.5,89.5C 158.382,90.5587 155.382,91.8921 152.5,93.5C 147.705,92.0405 143.705,89.3738 140.5,85.5C 141.97,81.0883 143.637,76.755 145.5,72.5 Z"/></g>
<g><path style="opacity:1" fill="#807922" d="M 114.5,87.5 C 122.661,88.0515 130.661,89.5515 138.5,92C 139.743,93.1545 140.743,94.4878 141.5,96C 128.124,96.0915 115.124,93.9248 102.5,89.5C 106.647,88.833 110.647,88.1663 114.5,87.5 Z"/></g>
<g><path style="opacity:0.999" fill="#7a7321" d="M 161.5,89.5 C 172.813,99.4974 180.479,111.831 184.5,126.5C 182.629,126.859 181.129,127.859 180,129.5C 178.971,132.39 177.805,135.224 176.5,138C 180.55,138.553 184.383,140.386 188,143.5C 188.972,152.306 188.306,160.973 186,169.5C 185.586,169.957 185.086,170.291 184.5,170.5C 183.38,169.167 182.047,168.667 180.5,169C 179.167,171 177.833,173 176.5,175C 181.954,174.242 187.288,172.742 192.5,170.5C 192.891,176.922 193.891,183.089 195.5,189C 194.101,190.062 193.101,191.395 192.5,193C 195.933,195.121 196.267,197.621 193.5,200.5C 194.855,202.521 196.521,204.188 198.5,205.5C 198.5,205.833 198.5,206.167 198.5,206.5C 194.818,206.335 191.152,206.501 187.5,207C 192.792,211.169 192.459,214.502 186.5,217C 189.73,218.724 190.064,220.724 187.5,223C 189.512,226.525 190.846,230.358 191.5,234.5C 190.388,238.724 188.722,242.724 186.5,246.5C 189.159,247.185 191.825,246.851 194.5,245.5C 196.232,253.579 197.566,261.746 198.5,270C 197.566,274.134 196.233,278.134 194.5,282C 196.225,287.488 196.892,292.988 196.5,298.5C 191.204,296.568 185.871,294.735 180.5,293C 178.9,281.264 177.733,269.431 177,257.5C 175.411,250.064 173.411,242.731 171,235.5C 165.264,206.052 165.098,176.552 170.5,147C 168.929,142.784 167.262,138.617 165.5,134.5C 162.138,144.255 158.805,153.922 155.5,163.5C 153.978,155.934 151.645,148.601 148.5,141.5C 147.675,140.614 146.675,140.281 145.5,140.5C 145.5,143.5 145.5,146.5 145.5,149.5C 144.839,148.282 144.172,146.949 143.5,145.5C 143.167,145.667 142.833,145.833 142.5,146C 141.577,148.041 141.244,150.208 141.5,152.5C 138.592,152.262 136.258,153.262 134.5,155.5C 132.978,152.371 132.145,149.037 132,145.5C 131.727,143.671 130.893,142.171 129.5,141C 131.324,140.34 132.657,139.173 133.5,137.5C 134.649,137.209 135.316,136.376 135.5,135C 135.294,133.634 134.96,132.301 134.5,131C 136.645,128.855 138.812,126.688 141,124.5C 140.707,128.568 142.041,131.902 145,134.5C 145.225,127.782 145.892,121.115 147,114.5C 150.586,124.179 152.253,134.179 152,144.5C 155.703,141.133 159.036,137.466 162,133.5C 163.783,126.868 165.949,120.368 168.5,114C 165.223,105.557 159.89,98.7238 152.5,93.5C 155.382,91.8921 158.382,90.5587 161.5,89.5 Z"/></g>
<g><path style="opacity:0.984" fill="#d8e2e6" d="M 46.5,94.5 C 45.2607,96.7072 44.7607,99.0405 45,101.5C 47.4646,106.269 50.2979,110.769 53.5,115C 51.881,118.855 50.881,122.855 50.5,127C 51.6397,137.841 52.4731,148.675 53,159.5C 51.7292,158.117 50.2292,157.117 48.5,156.5C 48.2189,152.812 47.7189,149.145 47,145.5C 46.6174,144.944 46.1174,144.611 45.5,144.5C 42.9574,137.37 40.1241,130.37 37,123.5C 35.9785,129.22 34.6451,134.886 33,140.5C 32.5002,150.161 32.3335,159.828 32.5,169.5C 28.2826,169.589 24.2826,170.423 20.5,172C 22.9183,175.424 24.9183,179.09 26.5,183C 25.1521,191.24 23.4854,199.406 21.5,207.5C 19.3392,208.035 17.3392,208.868 15.5,210C 18.3091,214.4 19.6424,219.234 19.5,224.5C 17.0787,243.164 17.0787,261.831 19.5,280.5C 17.6053,279.027 15.9387,277.36 14.5,275.5C 13.4157,269.25 12.5823,262.917 12,256.5C 4.55435,203.863 11.221,153.196 32,104.5C 34.8333,101.667 37.6667,98.8333 40.5,96C 42.3453,94.872 44.3453,94.372 46.5,94.5 Z"/></g>
<g><path style="opacity:1" fill="#867f24" d="M 147.5,99.5 C 149.148,101.429 150.815,103.429 152.5,105.5C 150.851,107.65 149.018,109.65 147,111.5C 146.503,107.476 146.669,103.476 147.5,99.5 Z"/></g>
<g><path style="opacity:1" fill="#7c7624" d="M 114.5,119.5 C 114.5,120.167 114.5,120.833 114.5,121.5C 112.018,123.503 111.018,126.169 111.5,129.5C 108.701,128.366 106.368,126.699 104.5,124.5C 103.943,119.119 103.443,113.786 103,108.5C 105.894,114.287 108.227,120.287 110,126.5C 109.663,122.817 111.163,120.484 114.5,119.5 Z"/></g>
<g><path style="opacity:1" fill="#403e1a" d="M 114.5,121.5 C 114.649,124.607 114.149,127.607 113,130.5C 112.617,129.944 112.117,129.611 111.5,129.5C 111.018,126.169 112.018,123.503 114.5,121.5 Z"/></g>
<g><path style="opacity:1" fill="#ceca40" d="M 45.5,144.5 C 44.1932,143.847 42.8599,143.18 41.5,142.5C 41.1667,143 40.8333,143.5 40.5,144C 42.8558,150.454 43.8558,157.121 43.5,164C 42.9426,176.626 41.4426,189.126 39,201.5C 36.7045,203.057 34.5378,204.724 32.5,206.5C 34.8333,209.5 37.5,212.167 40.5,214.5C 35.6914,221.143 30.6914,227.643 25.5,234C 28.7668,235.591 32.1002,237.091 35.5,238.5C 33.8744,239.99 32.2077,241.49 30.5,243C 33.0864,254.51 32.7531,266.01 29.5,277.5C 29.8864,279.932 30.5531,282.266 31.5,284.5C 31.189,285.478 30.5223,286.145 29.5,286.5C 25.8039,284.99 22.4706,282.99 19.5,280.5C 17.0787,261.831 17.0787,243.164 19.5,224.5C 19.6424,219.234 18.3091,214.4 15.5,210C 17.3392,208.868 19.3392,208.035 21.5,207.5C 23.4854,199.406 25.1521,191.24 26.5,183C 24.9183,179.09 22.9183,175.424 20.5,172C 24.2826,170.423 28.2826,169.589 32.5,169.5C 32.3335,159.828 32.5002,150.161 33,140.5C 34.6451,134.886 35.9785,129.22 37,123.5C 40.1241,130.37 42.9574,137.37 45.5,144.5 Z"/></g>
<g><path style="opacity:0.934" fill="#191e23" d="M 184.5,126.5 C 194.031,151.836 198.698,178.17 198.5,205.5C 196.521,204.188 194.855,202.521 193.5,200.5C 196.267,197.621 195.933,195.121 192.5,193C 193.101,191.395 194.101,190.062 195.5,189C 193.891,183.089 192.891,176.922 192.5,170.5C 187.288,172.742 181.954,174.242 176.5,175C 177.833,173 179.167,171 180.5,169C 182.047,168.667 183.38,169.167 184.5,170.5C 185.086,170.291 185.586,169.957 186,169.5C 188.306,160.973 188.972,152.306 188,143.5C 184.383,140.386 180.55,138.553 176.5,138C 177.805,135.224 178.971,132.39 180,129.5C 181.129,127.859 182.629,126.859 184.5,126.5 Z"/></g>
<g><path style="opacity:0.989" fill="#181d22" d="M 198.5,206.5 C 197.632,228.297 198.799,249.963 202,271.5C 202.667,282.833 202.667,294.167 202,305.5C 200.377,311.952 196.21,315.285 189.5,315.5C 186.088,315.19 182.921,314.19 180,312.5C 177.45,293.217 175.116,273.884 173,254.5C 167.113,236.957 163.78,218.957 163,200.5C 161.005,213.775 160.339,227.109 161,240.5C 162.822,246.121 164.489,251.788 166,257.5C 169.052,295.791 171.385,334.124 173,372.5C 174.869,377.772 176.535,383.106 178,388.5C 179.64,417.153 180.973,445.819 182,474.5C 183.846,477.569 184.846,480.902 185,484.5C 185.333,498.833 185.667,513.167 186,527.5C 186.447,531.353 187.947,534.686 190.5,537.5C 197.092,542.714 203.592,548.047 210,553.5C 212.002,557.342 213.502,561.342 214.5,565.5C 196.167,565.5 177.833,565.5 159.5,565.5C 158.536,558.689 158.87,551.856 160.5,545C 159.959,541.172 159.459,537.339 159,533.5C 157.092,530.785 155.759,527.785 155,524.5C 149.878,487.554 143.211,450.888 135,414.5C 129.317,399.119 124.65,383.453 121,367.5C 116.999,362.346 111.999,358.679 106,356.5C 102.928,357.036 100.261,358.37 98,360.5C 93.1407,370.08 88.474,379.747 84,389.5C 82.5601,399.821 79.8934,409.821 76,419.5C 73.2902,441.717 69.2902,463.717 64,485.5C 63.6667,493.833 63.3333,502.167 63,510.5C 59.4627,516.909 56.4627,523.576 54,530.5C 53.3333,535.167 53.3333,539.833 54,544.5C 55.3848,551.476 56.5515,558.476 57.5,565.5C 39.1667,565.5 20.8333,565.5 2.5,565.5C 8.65674,556.529 14.8234,547.529 21,538.5C 22.3989,535.637 23.3989,532.637 24,529.5C 30.7742,459.034 34.9409,388.367 36.5,317.5C 26.6873,317.855 22.1873,313.189 23,303.5C 20.0589,294.178 17.2255,284.845 14.5,275.5C 15.9387,277.36 17.6053,279.027 19.5,280.5C 22.4706,282.99 25.8039,284.99 29.5,286.5C 30.5223,286.145 31.189,285.478 31.5,284.5C 33.8025,282.022 35.9692,279.355 38,276.5C 38.4748,264.481 38.4748,252.481 38,240.5C 40.171,235.316 42.3376,230.15 44.5,225C 42.2591,223.478 39.9258,222.145 37.5,221C 40.788,216.923 43.9547,212.756 47,208.5C 47.2399,202.486 47.2399,196.486 47,190.5C 47.9862,189.829 49.1529,189.829 50.5,190.5C 51.8201,193.14 53.1534,195.807 54.5,198.5C 52.7887,205.366 50.7887,212.033 48.5,218.5C 47.5657,224.339 46.5657,230.172 45.5,236C 46.1067,242.34 46.7734,248.674 47.5,255C 46.0837,262.163 44.7503,269.329 43.5,276.5C 61.8672,275.831 80.2005,274.831 98.5,273.5C 111.861,276.295 125.194,276.128 138.5,273C 140.792,269.584 142.959,266.084 145,262.5C 146.945,261.137 149.112,260.303 151.5,260C 147.797,257.151 145.13,253.651 143.5,249.5C 144.189,243.853 144.689,238.186 145,232.5C 147.854,228.152 149.52,223.486 150,218.5C 142.164,223.419 134.164,228.086 126,232.5C 126.619,225.501 127.619,218.501 129,211.5C 135.455,208.355 141.955,205.355 148.5,202.5C 152.011,196.637 153.678,190.303 153.5,183.5C 150.833,183.5 148.167,183.5 145.5,183.5C 144.04,180.326 144.374,177.326 146.5,174.5C 147.91,176.542 149.41,178.542 151,180.5C 155.227,178.896 157.06,175.73 156.5,171C 156.275,168.472 155.942,165.972 155.5,163.5C 158.805,153.922 162.138,144.255 165.5,134.5C 167.262,138.617 168.929,142.784 170.5,147C 165.098,176.552 165.264,206.052 171,235.5C 173.411,242.731 175.411,250.064 177,257.5C 177.733,269.431 178.9,281.264 180.5,293C 185.871,294.735 191.204,296.568 196.5,298.5C 196.892,292.988 196.225,287.488 194.5,282C 196.233,278.134 197.566,274.134 198.5,270C 197.566,261.746 196.232,253.579 194.5,245.5C 191.825,246.851 189.159,247.185 186.5,246.5C 188.722,242.724 190.388,238.724 191.5,234.5C 190.846,230.358 189.512,226.525 187.5,223C 190.064,220.724 189.73,218.724 186.5,217C 192.459,214.502 192.792,211.169 187.5,207C 191.152,206.501 194.818,206.335 198.5,206.5 Z M 48.5,214.5 C 48.6027,208.139 49.1027,201.806 50,195.5C 51.6984,196.529 52.5317,198.029 52.5,200C 51.5301,205.059 50.1967,209.892 48.5,214.5 Z M 43.5,237.5 C 45.2516,245.282 45.7516,253.282 45,261.5C 43.1758,268.464 41.5091,275.464 40,282.5C 40.2958,267.435 41.4624,252.435 43.5,237.5 Z"/></g>
<g><path style="opacity:1" fill="#7b7422" d="M 45.5,144.5 C 46.1174,144.611 46.6174,144.944 47,145.5C 47.7189,149.145 48.2189,152.812 48.5,156.5C 50.2569,167.746 50.9236,179.079 50.5,190.5C 49.1529,189.829 47.9862,189.829 47,190.5C 47.2399,196.486 47.2399,202.486 47,208.5C 43.9547,212.756 40.788,216.923 37.5,221C 39.9258,222.145 42.2591,223.478 44.5,225C 42.3376,230.15 40.171,235.316 38,240.5C 38.4748,252.481 38.4748,264.481 38,276.5C 35.9692,279.355 33.8025,282.022 31.5,284.5C 30.5531,282.266 29.8864,279.932 29.5,277.5C 32.7531,266.01 33.0864,254.51 30.5,243C 32.2077,241.49 33.8744,239.99 35.5,238.5C 32.1002,237.091 28.7668,235.591 25.5,234C 30.6914,227.643 35.6914,221.143 40.5,214.5C 37.5,212.167 34.8333,209.5 32.5,206.5C 34.5378,204.724 36.7045,203.057 39,201.5C 41.4426,189.126 42.9426,176.626 43.5,164C 43.8558,157.121 42.8558,150.454 40.5,144C 40.8333,143.5 41.1667,143 41.5,142.5C 42.8599,143.18 44.1932,143.847 45.5,144.5 Z"/></g>
<g><path style="opacity:1" fill="#e3e6e4" d="M 133.5,137.5 C 132.657,139.173 131.324,140.34 129.5,141C 130.893,142.171 131.727,143.671 132,145.5C 132.145,149.037 132.978,152.371 134.5,155.5C 136.258,153.262 138.592,152.262 141.5,152.5C 142.901,155.633 144.734,158.633 147,161.5C 146.208,157.622 145.708,153.622 145.5,149.5C 145.5,146.5 145.5,143.5 145.5,140.5C 146.675,140.281 147.675,140.614 148.5,141.5C 151.645,148.601 153.978,155.934 155.5,163.5C 155.942,165.972 156.275,168.472 156.5,171C 157.06,175.73 155.227,178.896 151,180.5C 149.41,178.542 147.91,176.542 146.5,174.5C 144.374,177.326 144.04,180.326 145.5,183.5C 145.5,185.833 145.5,188.167 145.5,190.5C 142.6,190.592 140.933,189.259 140.5,186.5C 136.891,179.616 134.891,180.283 134.5,188.5C 133.549,189.919 133.216,191.585 133.5,193.5C 131.876,193.64 130.71,192.973 130,191.5C 129.26,193.319 128.093,194.652 126.5,195.5C 125.518,194.859 124.518,194.193 123.5,193.5C 119.779,195.243 116.612,194.576 114,191.5C 111.565,196.224 107.731,197.724 102.5,196C 101.069,195.535 99.9025,194.701 99,193.5C 98.4867,194.527 97.9867,195.527 97.5,196.5C 95.0252,198.77 93.0252,201.437 91.5,204.5C 90.607,206.297 89.2737,207.63 87.5,208.5C 84.9045,210.629 81.9045,211.962 78.5,212.5C 77.4265,211.749 77.2599,210.749 78,209.5C 80.1019,207.905 81.6019,205.905 82.5,203.5C 83.9949,201.669 84.6616,199.502 84.5,197C 84.0445,192.1 83.2112,187.267 82,182.5C 78.4723,184.252 76.3057,183.252 75.5,179.5C 77.4602,177.844 79.4602,176.177 81.5,174.5C 83.433,174.271 85.0997,173.438 86.5,172C 84.7427,168.409 82.4094,165.243 79.5,162.5C 78.5481,164.045 78.2148,165.712 78.5,167.5C 76.8372,169.438 76.1706,171.772 76.5,174.5C 75.325,174.719 74.325,174.386 73.5,173.5C 72.9724,171.664 72.3058,169.997 71.5,168.5C 71.5,167.5 71.5,166.5 71.5,165.5C 69.2646,165.795 67.2646,165.461 65.5,164.5C 65.2627,163.209 65.596,162.209 66.5,161.5C 68.0744,161.063 69.2411,160.063 70,158.5C 69.1706,151.166 69.3372,143.832 70.5,136.5C 70.5,136.167 70.5,135.833 70.5,135.5C 73.9886,131.265 76.4886,131.931 78,137.5C 80.0795,135.877 82.2462,134.377 84.5,133C 91.373,130.39 98.0397,127.556 104.5,124.5C 106.368,126.699 108.701,128.366 111.5,129.5C 112.117,129.611 112.617,129.944 113,130.5C 114.149,127.607 114.649,124.607 114.5,121.5C 114.5,120.833 114.5,120.167 114.5,119.5C 115.421,116.426 117.254,115.426 120,116.5C 123.074,122.641 125.574,128.974 127.5,135.5C 130.082,135.025 132.082,135.692 133.5,137.5 Z"/></g>
<g><path style="opacity:1" fill="#134e5e" d="M 89.5,158.5 C 88.5,158.5 87.5,158.5 86.5,158.5C 85.8333,157.833 85.1667,157.167 84.5,156.5C 84.1667,155.833 83.8333,155.167 83.5,154.5C 84.7574,153.377 84.4241,152.711 82.5,152.5C 83.5584,148.489 84.7251,144.489 86,140.5C 86.6667,139.167 87.3333,139.167 88,140.5C 88.8221,142.788 89.4888,145.122 90,147.5C 93.0334,145.088 94.7001,142.088 95,138.5C 93.5341,136.675 91.7008,136.175 89.5,137C 86.2686,138.466 82.9353,139.633 79.5,140.5C 78.6143,141.325 78.281,142.325 78.5,143.5C 77.6554,142.329 76.9887,140.995 76.5,139.5C 79.7143,138.56 82.7143,137.06 85.5,135C 89.0969,133.723 92.7636,133.39 96.5,134C 98.3569,135.182 99.3569,136.849 99.5,139C 97.9738,143.077 95.9738,146.911 93.5,150.5C 96.2629,151.252 98.9296,152.252 101.5,153.5C 101.833,153.167 102.167,152.833 102.5,152.5C 101.631,146.204 100.964,139.871 100.5,133.5C 98.146,133.162 95.8127,132.662 93.5,132C 100.247,126.544 106.747,127.044 113,133.5C 114.796,138.348 114.296,143.015 111.5,147.5C 109.367,149.091 107.701,151.091 106.5,153.5C 106.977,154.478 107.643,155.311 108.5,156C 106.833,156.333 105.167,156.667 103.5,157C 99.4562,161.785 98.4562,161.618 100.5,156.5C 96.9725,155.079 93.3058,154.412 89.5,154.5C 89.5,155.833 89.5,157.167 89.5,158.5 Z"/></g>
<g><path style="opacity:1" fill="#1b5662" d="M 118.5,119.5 C 119.804,120.987 120.97,122.654 122,124.5C 123.494,128.459 124.994,132.459 126.5,136.5C 127.729,137.281 129.062,137.781 130.5,138C 129.272,138.779 128.272,139.779 127.5,141C 129.661,143.477 130.495,146.311 130,149.5C 128.279,146.703 126.113,144.369 123.5,142.5C 120.227,143.062 119.227,144.729 120.5,147.5C 120.281,148.938 119.781,150.271 119,151.5C 118.04,148.935 116.54,146.769 114.5,145C 116.809,140.537 117.142,135.87 115.5,131C 116.274,127.07 117.274,123.237 118.5,119.5 Z"/></g>
<g><path style="opacity:1" fill="#dbdede" d="M 82.5,152.5 C 81.0204,149.612 79.6871,146.612 78.5,143.5C 78.281,142.325 78.6143,141.325 79.5,140.5C 82.9353,139.633 86.2686,138.466 89.5,137C 91.7008,136.175 93.5341,136.675 95,138.5C 94.7001,142.088 93.0334,145.088 90,147.5C 89.4888,145.122 88.8221,142.788 88,140.5C 87.3333,139.167 86.6667,139.167 86,140.5C 84.7251,144.489 83.5584,148.489 82.5,152.5 Z"/></g>
<g><path style="opacity:1" fill="#575747" d="M 80.5,142.5 C 82.3442,143.204 82.8442,144.537 82,146.5C 80.8118,145.437 80.3118,144.103 80.5,142.5 Z"/></g>
<g><path style="opacity:1" fill="#2c2c18" d="M 90.5,139.5 C 92.9732,139.947 93.1399,140.947 91,142.5C 90.5172,141.552 90.3505,140.552 90.5,139.5 Z"/></g>
<g><path style="opacity:1" fill="#dfe5e6" d="M 120.5,133.5 C 122.423,135.201 122.757,137.201 121.5,139.5C 120.534,137.604 120.201,135.604 120.5,133.5 Z"/></g>
<g><path style="opacity:1" fill="#dce0e2" d="M 105.5,134.5 C 108.352,134.352 110.019,135.686 110.5,138.5C 109.478,142.072 107.978,145.405 106,148.5C 105.501,143.845 105.334,139.179 105.5,134.5 Z"/></g>
<g><path style="opacity:1" fill="#2b2a19" d="M 98.5,145.5 C 99.782,146.708 99.782,148.042 98.5,149.5C 98.0941,148.443 98.0941,147.109 98.5,145.5 Z"/></g>
<g><path style="opacity:1" fill="#444218" d="M 70.5,136.5 C 69.3372,143.832 69.1706,151.166 70,158.5C 69.2411,160.063 68.0744,161.063 66.5,161.5C 66.2252,153.447 66.7252,145.447 68,137.5C 68.6708,136.748 69.5041,136.414 70.5,136.5 Z"/></g>
<g><path style="opacity:1" fill="#302e16" d="M 145.5,149.5 C 145.708,153.622 146.208,157.622 147,161.5C 144.734,158.633 142.901,155.633 141.5,152.5C 141.244,150.208 141.577,148.041 142.5,146C 142.833,145.833 143.167,145.667 143.5,145.5C 144.172,146.949 144.839,148.282 145.5,149.5 Z"/></g>
<g><path style="opacity:1" fill="#d1d6da" d="M 82.5,152.5 C 84.4241,152.711 84.7574,153.377 83.5,154.5C 82.6618,154.158 82.3284,153.492 82.5,152.5 Z"/></g>
<g><path style="opacity:1" fill="#322f15" d="M 124.5,160.5 C 124.663,158.143 124.497,155.81 124,153.5C 123.292,152.619 122.458,151.953 121.5,151.5C 122.039,149.495 122.705,147.495 123.5,145.5C 128.714,150.189 129.881,155.856 127,162.5C 126.005,161.934 125.172,161.267 124.5,160.5 Z"/></g>
<g><path style="opacity:1" fill="#353315" d="M 116.5,155.5 C 116.179,157.048 115.179,157.715 113.5,157.5C 108.228,154.82 108.228,151.987 113.5,149C 114.483,148.409 115.15,148.743 115.5,150C 116.233,151.766 116.567,153.599 116.5,155.5 Z"/></g>
<g><path style="opacity:1" fill="#48462a" d="M 96.5,165.5 C 95.4863,166.674 94.153,167.34 92.5,167.5C 91.7068,163.787 91.7068,160.12 92.5,156.5C 94.1151,157.154 95.7818,157.654 97.5,158C 95.4598,160.185 94.1264,162.685 93.5,165.5C 94.5,165.5 95.5,165.5 96.5,165.5 Z"/></g>
<g><path style="opacity:1" fill="#adb4bd" d="M 84.5,156.5 C 85.1667,157.167 85.8333,157.833 86.5,158.5C 86.6621,160.527 86.4955,162.527 86,164.5C 85.6943,162.094 84.861,159.927 83.5,158C 83.5699,157.235 83.9033,156.735 84.5,156.5 Z"/></g>
<g><path style="opacity:1" fill="#082c4d" d="M 140.5,178.5 C 138.25,177.87 136.25,176.87 134.5,175.5C 135.124,175.083 135.457,174.416 135.5,173.5C 135.366,171.354 134.699,170.354 133.5,170.5C 131.205,169.864 129.539,168.531 128.5,166.5C 129.21,162.653 130.376,158.986 132,155.5C 134.63,160.664 136.964,165.997 139,171.5C 139.02,167.806 138.52,164.14 137.5,160.5C 138.026,158.77 139.026,157.436 140.5,156.5C 143.528,160.361 146.361,164.361 149,168.5C 149.057,161.131 148.724,153.798 148,146.5C 151.737,155.521 153.737,164.855 154,174.5C 153.333,175.167 152.667,175.833 152,176.5C 149.071,173.949 146.238,171.282 143.5,168.5C 142.355,170.635 142.355,172.801 143.5,175C 142.486,176.641 141.486,177.808 140.5,178.5 Z"/></g>
<g><path style="opacity:1" fill="#0e3352" d="M 76.5,139.5 C 76.9887,140.995 77.6554,142.329 78.5,143.5C 79.6871,146.612 81.0204,149.612 82.5,152.5C 82.3284,153.492 82.6618,154.158 83.5,154.5C 83.8333,155.167 84.1667,155.833 84.5,156.5C 83.9033,156.735 83.5699,157.235 83.5,158C 84.861,159.927 85.6943,162.094 86,164.5C 86.4955,162.527 86.6621,160.527 86.5,158.5C 87.5,158.5 88.5,158.5 89.5,158.5C 89.5,160.167 89.5,161.833 89.5,163.5C 89.7148,165.179 89.0481,166.179 87.5,166.5C 84.7144,164.961 82.0478,162.628 79.5,159.5C 78.4461,159.68 77.4461,160.013 76.5,160.5C 75.6816,163.107 75.1816,165.774 75,168.5C 73.9591,165.887 72.4591,163.554 70.5,161.5C 72.8383,157.24 73.1717,152.74 71.5,148C 72.1347,143.95 73.3014,140.117 75,136.5C 75.5133,137.527 76.0133,138.527 76.5,139.5 Z"/></g>
<g><path style="opacity:1" fill="#dfe1e5" d="M 76.5,150.5 C 78.4233,152.201 78.7567,154.201 77.5,156.5C 76.5344,154.604 76.2011,152.604 76.5,150.5 Z"/></g>
<g><path style="opacity:1" fill="#625e1f" d="M 121.5,151.5 C 122.458,151.953 123.292,152.619 124,153.5C 124.497,155.81 124.663,158.143 124.5,160.5C 116.962,160.188 112.462,163.855 111,171.5C 109.961,170.29 108.794,169.29 107.5,168.5C 107.5,166.833 107.5,165.167 107.5,163.5C 105.801,163.34 104.134,163.506 102.5,164C 102.736,165.451 102.736,166.951 102.5,168.5C 99.23,170.101 96.5633,172.434 94.5,175.5C 92.8333,175.167 91.8333,174.167 91.5,172.5C 92.0463,170.865 92.3796,169.199 92.5,167.5C 94.153,167.34 95.4863,166.674 96.5,165.5C 98.8707,162.816 101.871,161.482 105.5,161.5C 105.281,160.325 105.614,159.325 106.5,158.5C 109.345,160.191 111.679,159.857 113.5,157.5C 115.179,157.715 116.179,157.048 116.5,155.5C 117.467,156.806 118.801,157.473 120.5,157.5C 120.325,155.379 120.659,153.379 121.5,151.5 Z"/></g>
<g><path style="opacity:1" fill="#072f4f" d="M 120.5,166.5 C 119.167,166.167 117.833,165.833 116.5,165.5C 119.878,161.384 122.878,161.551 125.5,166C 125.167,166.833 124.833,167.667 124.5,168.5C 123.378,167.37 122.044,166.703 120.5,166.5 Z"/></g>
<g><path style="opacity:1" fill="#bab643" d="M 107.5,168.5 C 105.833,168.5 104.167,168.5 102.5,168.5C 102.736,166.951 102.736,165.451 102.5,164C 104.134,163.506 105.801,163.34 107.5,163.5C 107.5,165.167 107.5,166.833 107.5,168.5 Z"/></g>
<g><path style="opacity:1" fill="#373614" d="M 65.5,164.5 C 67.2646,165.461 69.2646,165.795 71.5,165.5C 71.5,166.5 71.5,167.5 71.5,168.5C 71.7852,170.288 71.4519,171.955 70.5,173.5C 68.8903,171.269 67.057,169.269 65,167.5C 64.2599,166.251 64.4265,165.251 65.5,164.5 Z"/></g>
<g><path style="opacity:1" fill="#343314" d="M 81.5,174.5 C 81.8337,171.509 80.8337,169.176 78.5,167.5C 78.2148,165.712 78.5481,164.045 79.5,162.5C 82.4094,165.243 84.7427,168.409 86.5,172C 85.0997,173.438 83.433,174.271 81.5,174.5 Z"/></g>
<g><path style="opacity:1" fill="#dfe2e5" d="M 134.5,175.5 C 133.549,174.081 133.216,172.415 133.5,170.5C 134.699,170.354 135.366,171.354 135.5,173.5C 135.457,174.416 135.124,175.083 134.5,175.5 Z"/></g>
<g><path style="opacity:1" fill="#918e2d" d="M 70.5,135.5 C 70.5,135.833 70.5,136.167 70.5,136.5C 69.5041,136.414 68.6708,136.748 68,137.5C 66.7252,145.447 66.2252,153.447 66.5,161.5C 65.596,162.209 65.2627,163.209 65.5,164.5C 64.4265,165.251 64.2599,166.251 65,167.5C 67.057,169.269 68.8903,171.269 70.5,173.5C 71.4519,171.955 71.7852,170.288 71.5,168.5C 72.3058,169.997 72.9724,171.664 73.5,173.5C 74.325,174.386 75.325,174.719 76.5,174.5C 76.1706,171.772 76.8372,169.438 78.5,167.5C 80.8337,169.176 81.8337,171.509 81.5,174.5C 79.4602,176.177 77.4602,177.844 75.5,179.5C 73.5159,179.484 72.5159,180.484 72.5,182.5C 72.7573,184.692 73.7573,186.359 75.5,187.5C 73.6096,187.703 72.1096,187.037 71,185.5C 70.6667,183.167 70.3333,180.833 70,178.5C 67.9978,176.497 66.4978,174.164 65.5,171.5C 58.058,168.65 57.558,164.983 64,160.5C 64.2525,153.124 64.9192,145.791 66,138.5C 66.5885,136.137 68.0885,135.137 70.5,135.5 Z"/></g>
<g><path style="opacity:1" fill="#16515f" d="M 89.5,163.5 C 90.1243,167.648 90.1243,171.982 89.5,176.5C 92.1667,177.167 94.8333,177.833 97.5,178.5C 98.3969,171.414 102.064,169.247 108.5,172C 102.878,176.653 101.378,182.486 104,189.5C 106.54,190.876 108.54,190.21 110,187.5C 110.333,183.5 110.667,179.5 111,175.5C 111.667,176.833 112.333,176.833 113,175.5C 113.013,171.654 114.18,168.321 116.5,165.5C 117.833,165.833 119.167,166.167 120.5,166.5C 115.385,173.845 115.385,181.178 120.5,188.5C 121.833,186.5 123.167,184.5 124.5,182.5C 122.089,181.912 120.089,180.745 118.5,179C 122.082,177.197 125.749,175.697 129.5,174.5C 129.425,171.794 129.092,169.127 128.5,166.5C 129.539,168.531 131.205,169.864 133.5,170.5C 133.216,172.415 133.549,174.081 134.5,175.5C 136.25,176.87 138.25,177.87 140.5,178.5C 142.982,180.102 143.815,182.435 143,185.5C 141.257,183.679 139.757,181.679 138.5,179.5C 136.081,178.105 134.081,178.605 132.5,181C 133.749,183.21 133.582,185.376 132,187.5C 131.1,185.602 129.934,183.936 128.5,182.5C 127.61,184.826 127.443,187.159 128,189.5C 126.594,190.668 125.428,190.335 124.5,188.5C 120.594,193.992 117.094,193.658 114,187.5C 112.623,189.754 111.123,191.92 109.5,194C 104.726,195.361 101.226,193.861 99,189.5C 96.3333,193.5 93.6667,197.5 91,201.5C 83.2356,208.71 82.0689,208.044 87.5,199.5C 86.2075,193.582 85.3741,187.582 85,181.5C 82.9285,180.475 80.7619,179.642 78.5,179C 81.4872,176.918 84.8206,175.751 88.5,175.5C 88.6323,172.43 88.299,169.43 87.5,166.5C 89.0481,166.179 89.7148,165.179 89.5,163.5 Z"/></g>
<g><path style="opacity:1" fill="#2c2b1d" d="M 105.5,177.5 C 106.5,177.5 107.5,177.5 108.5,177.5C 108.665,180.518 108.498,183.518 108,186.5C 107.586,186.957 107.086,187.291 106.5,187.5C 104.307,184.381 103.974,181.047 105.5,177.5 Z"/></g>
<g><path style="opacity:1" fill="#eaeceb" d="M 90.5,181.5 C 93.0489,181.937 94.3822,183.437 94.5,186C 93.7603,189.565 92.2603,192.732 90,195.5C 90.3779,190.92 90.5446,186.254 90.5,181.5 Z"/></g>
<g><path style="opacity:1" fill="#27261b" d="M 120.5,169.5 C 122.741,170.3 123.741,171.966 123.5,174.5C 122.167,174.5 120.833,174.5 119.5,174.5C 119.629,172.784 119.962,171.117 120.5,169.5 Z"/></g>
<g><path style="opacity:1" fill="#201e0f" d="M 140.5,186.5 C 140.5,187.833 140.5,189.167 140.5,190.5C 138.54,189.862 136.707,189.862 135,190.5C 134.536,189.906 134.369,189.239 134.5,188.5C 134.891,180.283 136.891,179.616 140.5,186.5 Z"/></g>
<g><path style="opacity:1" fill="#7a7321" d="M 145.5,183.5 C 148.167,183.5 150.833,183.5 153.5,183.5C 153.678,190.303 152.011,196.637 148.5,202.5C 141.955,205.355 135.455,208.355 129,211.5C 127.619,218.501 126.619,225.501 126,232.5C 134.164,228.086 142.164,223.419 150,218.5C 149.52,223.486 147.854,228.152 145,232.5C 144.689,238.186 144.189,243.853 143.5,249.5C 145.13,253.651 147.797,257.151 151.5,260C 149.112,260.303 146.945,261.137 145,262.5C 142.959,266.084 140.792,269.584 138.5,273C 125.194,276.128 111.861,276.295 98.5,273.5C 97.4045,271.642 96.0712,269.975 94.5,268.5C 93.5,269.167 92.5,269.833 91.5,270.5C 92.7724,258.771 88.4391,249.937 78.5,244C 84.1962,241.836 84.6962,239.002 80,235.5C 79.3333,234.833 79.3333,234.167 80,233.5C 84.0838,230.874 88.2505,228.374 92.5,226C 95.5419,222.299 98.5419,218.632 101.5,215C 99.3946,210.393 96.0613,206.893 91.5,204.5C 93.0252,201.437 95.0252,198.77 97.5,196.5C 101.475,201.45 105.975,201.783 111,197.5C 115.471,198.513 119.971,198.679 124.5,198C 125.756,197.583 126.423,196.75 126.5,195.5C 128.093,194.652 129.26,193.319 130,191.5C 130.71,192.973 131.876,193.64 133.5,193.5C 133.216,191.585 133.549,189.919 134.5,188.5C 134.369,189.239 134.536,189.906 135,190.5C 136.707,189.862 138.54,189.862 140.5,190.5C 140.5,189.167 140.5,187.833 140.5,186.5C 140.933,189.259 142.6,190.592 145.5,190.5C 145.5,188.167 145.5,185.833 145.5,183.5 Z"/></g>
<g><path style="opacity:1" fill="#423f16" d="M 126.5,195.5 C 126.423,196.75 125.756,197.583 124.5,198C 119.971,198.679 115.471,198.513 111,197.5C 105.975,201.783 101.475,201.45 97.5,196.5C 97.9867,195.527 98.4867,194.527 99,193.5C 99.9025,194.701 101.069,195.535 102.5,196C 107.731,197.724 111.565,196.224 114,191.5C 116.612,194.576 119.779,195.243 123.5,193.5C 124.518,194.193 125.518,194.859 126.5,195.5 Z"/></g>
<g><path style="opacity:1" fill="#3c3b1b" d="M 75.5,179.5 C 76.3057,183.252 78.4723,184.252 82,182.5C 83.2112,187.267 84.0445,192.1 84.5,197C 84.6616,199.502 83.9949,201.669 82.5,203.5C 81.8333,199.5 81.1667,195.5 80.5,191.5C 80.1667,190.5 79.5,189.833 78.5,189.5C 77.7095,188.599 76.7095,187.932 75.5,187.5C 73.7573,186.359 72.7573,184.692 72.5,182.5C 72.5159,180.484 73.5159,179.484 75.5,179.5 Z"/></g>
<g><path style="opacity:1" fill="#5d5b21" d="M 80.5,191.5 C 81.1667,195.5 81.8333,199.5 82.5,203.5C 81.6019,205.905 80.1019,207.905 78,209.5C 77.2599,210.749 77.4265,211.749 78.5,212.5C 77.8166,214.176 76.4832,214.843 74.5,214.5C 75.7895,210.588 77.6229,206.921 80,203.5C 80.4988,199.514 80.6655,195.514 80.5,191.5 Z"/></g>
<g><path style="opacity:1" fill="#8b882b" d="M 78.5,189.5 C 79.5,189.833 80.1667,190.5 80.5,191.5C 80.6655,195.514 80.4988,199.514 80,203.5C 77.6229,206.921 75.7895,210.588 74.5,214.5C 76.4832,214.843 77.8166,214.176 78.5,212.5C 81.9045,211.962 84.9045,210.629 87.5,208.5C 84.0588,213.267 79.3922,215.934 73.5,216.5C 72.8724,211.962 74.3724,208.295 78,205.5C 78.4994,200.177 78.666,194.844 78.5,189.5 Z"/></g>
</svg>
